<svg xmlns="http://www.w3.org/2000/svg" viewBox="0 0 80 80"><defs><style>.cls-1{fill:none;}.cls-2{fill:#e9a0a7;}.cls-3{fill:#fdd5a9;}.cls-4{fill:#1e1e1e;}</style></defs><g id="Layer_2" data-name="Layer 2"><g id="Layer_1-2" data-name="Layer 1"><rect class="cls-1" width="80" height="80"/><path class="cls-2" d="M59.79,33.65a1.41,1.41,0,0,0-1.41,1.41V55.63H63c4.51,0,6.77-3.65,6.77-8.7V33.65Z"/><path class="cls-3" d="M65.42,10.63c-4,0-6.53,7-8.51,12.61L49.84,43.31c-.92,2.62-2.17,6.36-2.17,8.27,0,2.28,1.37,4.05,4.62,4.05h6.09V35.06a1.41,1.41,0,0,1,1.41-1.41h10v-15C69.79,13.92,68.82,10.63,65.42,10.63Z"/><path class="cls-4" d="M21.55,54.55h-.11a.71.71,0,0,1-.59-.79c.3-2.06,1-5.15,1.81-8.72l.62-2.73a111.31,111.31,0,0,1,5-15.78,1.54,1.54,0,0,0,.09-.22.7.7,0,0,1,1.31.5l-.12.28a110.25,110.25,0,0,0-5,15.53L24,45.34c-.81,3.54-1.5,6.6-1.79,8.61A.7.7,0,0,1,21.55,54.55Z"/><path class="cls-4" d="M11.11,37.66a.67.67,0,0,1-.34-.09.69.69,0,0,1-.36-.59A12.24,12.24,0,0,1,22.35,24.33h0a.7.7,0,0,1,0,1.4,10.84,10.84,0,0,0-10.54,10l16.63-9.52a.7.7,0,0,1,.95.26.69.69,0,0,1-.26,1L11.46,37.57A.73.73,0,0,1,11.11,37.66Z"/><path class="cls-4" d="M28.78,27.37a.67.67,0,0,1-.61-.37L18.43,9.08a.7.7,0,0,1,.61-1,12.2,12.2,0,0,1,10.9,6.39,15.45,15.45,0,0,1,1.57,4.69.69.69,0,0,1-.6.79.7.7,0,0,1-.78-.6,14.31,14.31,0,0,0-1.42-4.22,10.81,10.81,0,0,0-8.46-5.6L29.4,26.33a.71.71,0,0,1-.29,1A.66.66,0,0,1,28.78,27.37Z"/><path class="cls-4" d="M28.65,27.5l-.19,0L8.83,22a.71.71,0,0,1-.32-1.16,12.24,12.24,0,0,1,12.18-3.36l.3.09a12.6,12.6,0,0,1,4.64,2,.7.7,0,0,1,.09,1,.69.69,0,0,1-1,.09,11.68,11.68,0,0,0-4.13-1.71l-.3-.09A10.79,10.79,0,0,0,10.4,21l18.44,5.18a.7.7,0,0,1-.19,1.37Z"/><path class="cls-4" d="M38.39,45.12h0a.7.7,0,0,1-.58-.37L27.94,26.89a.7.7,0,0,1,1.23-.67L38.41,43a10.8,10.8,0,0,0-.16-10.15,12.71,12.71,0,0,0-2.63-3.63.71.71,0,0,1-.08-1,.7.7,0,0,1,1-.09,14.57,14.57,0,0,1,3,4A12.21,12.21,0,0,1,39,44.8.7.7,0,0,1,38.39,45.12Z"/><path class="cls-4" d="M28.66,27.13a.66.66,0,0,1-.33-.09.7.7,0,0,1-.37-.58A12.22,12.22,0,0,1,46.68,15.61a.71.71,0,0,1,0,1.2L29,27A.62.62,0,0,1,28.66,27.13Zm11.51-12A10.83,10.83,0,0,0,29.38,25.2l15.5-9A10.82,10.82,0,0,0,40.17,15.13Z"/><path class="cls-4" d="M48.34,32.82a.58.58,0,0,1-.19,0L28.51,27.28a.7.7,0,1,1,.38-1.34l18.45,5.18a10.77,10.77,0,0,0-7.35-7,10.41,10.41,0,0,0-4.66-.61.69.69,0,0,1-.81-.56.7.7,0,0,1,.56-.82,11.65,11.65,0,0,1,5.29.64A12.19,12.19,0,0,1,49,32a.68.68,0,0,1-.21.65A.66.66,0,0,1,48.34,32.82Z"/><path class="cls-4" d="M9,71.34a.7.7,0,0,1-.7-.7V65.35c0-1.76,0-3.22,0-6.68A.73.73,0,0,1,8.66,58c.31-.13.79-.4,1.35-.71,3.69-2.08,12.34-7,21.22-.64,3.39,2.41,5.41,5.81,7,8.54,1.34,2.24,2.49,4.17,3.85,4.59a.7.7,0,0,1-.41,1.33c-1.88-.57-3.1-2.61-4.64-5.21-1.64-2.75-3.5-5.87-6.65-8.11-8.16-5.8-16-1.4-19.73.72l-1,.58c0,3.14,0,4.55,0,6.24v5.29a.7.7,0,0,1-.7.7Z"/><path class="cls-4" d="M9.2,71.34a.7.7,0,1,1,0-1.4H41.91a.7.7,0,0,1,0,1.4Z"/><path class="cls-4" d="M52.28,55.7a5.5,5.5,0,1,1,5.5-5.5A5.51,5.51,0,0,1,52.28,55.7Zm0-9.6a4.1,4.1,0,1,0,4.1,4.1A4.11,4.11,0,0,0,52.28,46.1Z"/><path class="cls-4" d="M67.61,72a15.85,15.85,0,0,1-5.41-.83,14.42,14.42,0,0,0-5-.77,14.42,14.42,0,0,0-5,.77,15.85,15.85,0,0,1-5.41.83,15.85,15.85,0,0,1-5.41-.83.7.7,0,0,1,.41-1.34,14.42,14.42,0,0,0,5,.77,14.42,14.42,0,0,0,5-.77A15.85,15.85,0,0,1,57.2,69a15.85,15.85,0,0,1,5.41.83,14.42,14.42,0,0,0,5,.77.7.7,0,1,1,0,1.4Z"/><path class="cls-4" d="M65.85,63.39a15.85,15.85,0,0,1-5.41-.83,14.66,14.66,0,0,0-5-.77,14.66,14.66,0,0,0-5,.77,15.85,15.85,0,0,1-5.41.83,14.27,14.27,0,0,1-5.23-.83A12.67,12.67,0,0,0,35,61.79a.7.7,0,0,1,0-1.4,14.14,14.14,0,0,1,5.23.84A13,13,0,0,0,45,62a14.42,14.42,0,0,0,5-.77,16.11,16.11,0,0,1,5.41-.83,16.11,16.11,0,0,1,5.41.83,14.42,14.42,0,0,0,5,.77,14.71,14.71,0,0,0,5-.76l.41,1.33A15.85,15.85,0,0,1,65.85,63.39Z"/><path class="cls-4" d="M64.17,19.87h0a.71.71,0,0,1-.7-.71c0-1.32-1.88-1.37-2-1.37a.7.7,0,0,1-.69-.71.69.69,0,0,1,.72-.69c1.16,0,3.35.63,3.33,2.78A.7.7,0,0,1,64.17,19.87Z"/><path class="cls-4" d="M64.17,19.87h0a.71.71,0,0,1-.7-.71c0-2.48,2.82-3.56,2.93-3.61a.72.72,0,0,1,.91.41.71.71,0,0,1-.41.9h0s-2,.79-2,2.31A.7.7,0,0,1,64.17,19.87Z"/></g></g></svg>