<svg xmlns="http://www.w3.org/2000/svg" viewBox="0 0 80 80"><defs><style>.cls-1{fill:#e9a0a7;}.cls-2{fill:#fdd5a9;}.cls-3{fill:#1e1e1e;}.cls-4{fill:none;}</style></defs><g id="Layer_2" data-name="Layer 2"><g id="Layer_1-2" data-name="Layer 1"><path class="cls-1" d="M56.65,43.93a1.41,1.41,0,0,0-1.41,1.4V65.9h4.64c4.51,0,6.77-3.64,6.77-8.7V43.93Z"/><path class="cls-2" d="M62.28,20.9c-4,0-6.53,7-8.51,12.61L46.7,53.58c-.92,2.62-2.17,6.37-2.17,8.27,0,2.29,1.37,4.05,4.62,4.05h6.09V45.33a1.41,1.41,0,0,1,1.41-1.4h10v-15C66.65,24.19,65.68,20.9,62.28,20.9Z"/><path class="cls-3" d="M66,19.08a5.5,5.5,0,1,1,5.35-6.83,5.42,5.42,0,0,1-.62,4.16,5.5,5.5,0,0,1-3.38,2.51A5.66,5.66,0,0,1,66,19.08Zm0-9.6a4.27,4.27,0,0,0-1,.12,4.1,4.1,0,1,0,5,3h0a4.1,4.1,0,0,0-4-3.11Z"/><path class="cls-3" d="M71.09,71.83a.7.7,0,0,1-.7-.7v-9a11.63,11.63,0,0,0-8.25,0c-1,.38-1.89.77-2.76,1.14a31.36,31.36,0,0,1-8.82,2.68.71.71,0,0,1-.79-.6.71.71,0,0,1,.6-.79A30.42,30.42,0,0,0,58.82,62c.9-.39,1.81-.78,2.82-1.17a12.78,12.78,0,0,1,9.77.25.71.71,0,0,1,.38.63v9.44A.7.7,0,0,1,71.09,71.83Z"/><path class="cls-3" d="M8.91,71.83a.7.7,0,0,1-.7-.7V62.32a.71.71,0,0,1,.21-.5.7.7,0,0,1,.51-.2,22.58,22.58,0,0,1,5.56.84l.89.29a15,15,0,0,0,5.88,1.11.7.7,0,0,1,.74.65.69.69,0,0,1-.65.74,16.24,16.24,0,0,1-6.41-1.17l-.88-.29a20.49,20.49,0,0,0-4.45-.74v8.08A.7.7,0,0,1,8.91,71.83Z"/><path class="cls-3" d="M71.09,71.93H8.91a.7.7,0,0,1,0-1.4H71.09a.7.7,0,0,1,0,1.4Z"/><path class="cls-3" d="M35.36,71.93H21.3a.7.7,0,0,1-.7-.7V51A.7.7,0,1,1,22,51V70.53H34.66l0-19.23a.7.7,0,0,1,.7-.7h0a.7.7,0,0,1,.7.7l0,19.93a.72.72,0,0,1-.2.5A.7.7,0,0,1,35.36,71.93Z"/><path class="cls-3" d="M40,71.93H35.36a.7.7,0,0,1,0-1.4h3.92V60.09a4,4,0,0,1,4.11-3.84h5.85V50.79a.7.7,0,1,1,1.4,0V57a.7.7,0,0,1-.7.7H43.39a2.59,2.59,0,0,0-2.71,2.44V71.23A.7.7,0,0,1,40,71.93Z"/><path class="cls-3" d="M49.94,51.7H21.3a.7.7,0,0,1-.7-.7V45.69a.7.7,0,0,1,.7-.7H49.94a.7.7,0,0,1,.7.7V51A.7.7,0,0,1,49.94,51.7ZM22,50.3H49.24V46.39H22Z"/><path class="cls-3" d="M50.64,71.93H39.28V60.09a4,4,0,0,1,4.11-3.84h7.25Zm-10-1.4h8.56V57.65H43.39a2.59,2.59,0,0,0-2.71,2.44Z"/><path class="cls-3" d="M35.33,46.39a.7.7,0,0,1-.7-.7V36.13a.7.7,0,0,1,.7-.7h0a.7.7,0,0,1,.7.7v9.56a.7.7,0,0,1-.7.7Z"/><path class="cls-3" d="M38,17.76a.7.7,0,0,1-.7-.7V10.75A1.32,1.32,0,0,0,36,9.41a1.35,1.35,0,0,0-1.37,1.34.7.7,0,0,1-1.4,0,2.78,2.78,0,0,1,5.55,0v6.31A.7.7,0,0,1,38,17.76Z"/><path class="cls-3" d="M42.21,11.45a.7.7,0,0,1-.7-.7,1.36,1.36,0,0,0-1.43-1.34,1.34,1.34,0,0,0-1.35,1.34.7.7,0,0,1-1.4,0,2.79,2.79,0,0,1,5.58,0A.7.7,0,0,1,42.21,11.45Z"/><path class="cls-3" d="M33.89,36.66c-4.4,0-9.75-1.12-12.29-9.83a50.61,50.61,0,0,1-1.56-7c0-.09,0-.22,0-.37-.16-1.4-.48-4.3,1.22-5.11,1.49-.71,2.75,1.52,4.34,4.36.7,1.24,1.87,3.32,2.36,3.49,1-.22,1.08-1.4,1.12-3.06V10.75A2.73,2.73,0,0,1,31.79,8a2.74,2.74,0,0,1,2.79,2.74v6.31a.7.7,0,0,1-1.4,0V10.75a1.32,1.32,0,0,0-1.39-1.34,1.34,1.34,0,0,0-1.34,1.34v8.42c0,1.47-.1,3.94-2.34,4.39-1.21.24-2.17-1.35-3.76-4.18-.77-1.36-2.05-3.64-2.61-3.76-.44.24-.58,1.48-.34,3.67,0,.18,0,.32,0,.43a51.23,51.23,0,0,0,1.51,6.72c2.26,7.75,6.59,8.82,10.93,8.82,5.2,0,6.65-1.1,7.51-1.76l.4-.29a27.71,27.71,0,0,0,2.73-3.12c.47-.59.93-1.18,1.42-1.74,1.36-1.58,2.72-3,4.45-3.59a8.79,8.79,0,0,1,3.26-.26c.28,0,.61,0,.78,0a.76.76,0,0,0,.24-.65c-.08-.59-.91-1.17-1.19-1.33a8.1,8.1,0,0,0-3.8-.93h-.06a8.71,8.71,0,0,0-3.86,1.27,25.63,25.63,0,0,1-2.56,1.18,1.74,1.74,0,0,1-1.13.09.68.68,0,0,1-.5-.66l-.05-12.73a.71.71,0,0,1,.7-.71h0a.7.7,0,0,1,.7.7l0,11.9c.78-.31,1.49-.67,2.17-1a9.67,9.67,0,0,1,4.57-1.43,9.36,9.36,0,0,1,4.48,1.12A3.77,3.77,0,0,1,56,23.66a2.24,2.24,0,0,1-.71,1.94c-.37.37-.92.34-1.76.3a7.77,7.77,0,0,0-2.76.19c-1.39.44-2.6,1.75-3.82,3.17-.47.55-.93,1.13-1.38,1.7a28.56,28.56,0,0,1-2.92,3.32l-.1.07c-.12.08-.23.17-.36.27C41.22,35.38,39.54,36.66,33.89,36.66Z"/><rect class="cls-4" width="80" height="80"/></g></g></svg>