<svg xmlns="http://www.w3.org/2000/svg" viewBox="0 0 80 80"><defs><style>.cls-1{fill:none;}.cls-2{fill:#e9a0a7;}.cls-3{fill:#fdd5a9;}.cls-4{fill:#1e1e1e;}</style></defs><g id="Layer_2" data-name="Layer 2"><g id="Layer_1-2" data-name="Layer 1"><rect class="cls-1" width="80" height="80"/><path class="cls-2" d="M62,31a1.41,1.41,0,0,0-1.41,1.41V53h4.64C69.74,53,72,49.35,72,44.3V31Z"/><path class="cls-3" d="M67.63,8c-4,0-6.54,7-8.52,12.61L52.05,40.68C51.12,43.3,49.88,47,49.88,49c0,2.28,1.37,4,4.62,4h6.09V32.43A1.41,1.41,0,0,1,62,31H72V16C72,11.29,71,8,67.63,8Z"/><path class="cls-4" d="M26.22,19.09a.69.69,0,0,1-.68-.58c-.44-2.43,2.66-3.69,2.8-3.74a.68.68,0,0,1,.9.39.7.7,0,0,1-.39.91s-2.16.91-1.94,2.19a.69.69,0,0,1-.56.81Z"/><path class="cls-4" d="M26.22,19.09a.69.69,0,0,1-.68-.58c-.23-1.3-2.56-1.39-2.58-1.39a.71.71,0,0,1-.69-.72.7.7,0,0,1,.72-.68c.14,0,3.49.11,3.92,2.54a.69.69,0,0,1-.56.81Z"/><path class="cls-4" d="M12.35,12.85a.7.7,0,0,1-.67-.9c.74-2.42,4.16-2.12,4.31-2.11a.7.7,0,0,1-.14,1.4s-2.43-.19-2.83,1.12A.7.7,0,0,1,12.35,12.85Z"/><path class="cls-4" d="M12.35,12.85a.7.7,0,0,1-.67-.9c.4-1.32-1.7-2.5-1.72-2.51a.71.71,0,0,1-.28-.95.7.7,0,0,1,1-.28c.13.07,3.13,1.73,2.39,4.15A.7.7,0,0,1,12.35,12.85Z"/><path class="cls-4" d="M68.72,30.42a.73.73,0,0,1-.33-.08l-16.9-8.85L34.58,30.34a.71.71,0,0,1-.69,0,.69.69,0,0,1-.33-.6V25.16a.71.71,0,0,1,.36-.62l17.23-9.25a.67.67,0,0,1,.67,0l17.23,9.25a.72.72,0,0,1,.37.62v4.56a.7.7,0,0,1-.34.6A.68.68,0,0,1,68.72,30.42ZM51.49,20a.72.72,0,0,1,.32.08L68,28.57v-3L51.49,16.7,35,25.58v3l16.2-8.49A.73.73,0,0,1,51.49,20Z"/><path class="cls-4" d="M65.75,50.07H37.22a.7.7,0,0,1-.7-.7V28.15a.7.7,0,0,1,1.4,0V48.67H65.05V28.15a.7.7,0,0,1,1.4,0V49.37A.7.7,0,0,1,65.75,50.07Z"/><path class="cls-4" d="M56.93,72a.71.71,0,0,1-.7-.7V50.07H46.74V71.3a.7.7,0,1,1-1.4,0V49.37a.7.7,0,0,1,.7-.7H56.93a.7.7,0,0,1,.7.7V71.3A.7.7,0,0,1,56.93,72Z"/><path class="cls-4" d="M56.93,56.93H46a.7.7,0,0,1,0-1.4H56.93a.7.7,0,0,1,0,1.4Z"/><path class="cls-4" d="M56.93,65H46a.7.7,0,0,1,0-1.4H56.93a.7.7,0,1,1,0,1.4Z"/><path class="cls-4" d="M68,72a.7.7,0,0,1-.68-.51L61.11,49.56a.7.7,0,1,1,1.34-.38L68.7,71.11a.69.69,0,0,1-.48.86Z"/><path class="cls-4" d="M35,72a.69.69,0,0,1-.2,0,.7.7,0,0,1-.48-.86l6.25-21.93a.7.7,0,0,1,1.35.38L35.62,71.49A.7.7,0,0,1,35,72Z"/><path class="cls-4" d="M21.36,51.11a6,6,0,0,1-5.29-3.24,5.29,5.29,0,0,1-3.74-5.08,5.19,5.19,0,0,1,.59-2.43,5.65,5.65,0,0,1,2.47-9.42,6,6,0,0,1,11.9,0,5.64,5.64,0,0,1,2.47,9.42,5.31,5.31,0,0,1-3.1,7.49A5.94,5.94,0,0,1,21.36,51.11Zm0-24.66A4.55,4.55,0,0,0,16.79,31a3,3,0,0,0,0,.43.71.71,0,0,1-.59.77,4.24,4.24,0,0,0-2,7.49.7.7,0,0,1,.13.94,3.83,3.83,0,0,0-.66,2.17,3.9,3.9,0,0,0,3,3.81.71.71,0,0,1,.48.4,4.54,4.54,0,0,0,8.32,0,.69.69,0,0,1,.47-.39,3.92,3.92,0,0,0,2.29-6,.7.7,0,0,1,.14-.93A4.28,4.28,0,0,0,30,36.38a4.23,4.23,0,0,0-3.56-4.19.71.71,0,0,1-.58-.77,3,3,0,0,0,0-.43A4.55,4.55,0,0,0,21.34,26.45Z"/><path class="cls-4" d="M21.34,62.83a.71.71,0,0,1-.7-.7V36.48a.7.7,0,1,1,1.4,0V62.13A.7.7,0,0,1,21.34,62.83Z"/><path class="cls-4" d="M21.34,43.47a.7.7,0,0,1-.55-.27l-2.38-3a.7.7,0,0,1,.12-1,.71.71,0,0,1,1,.12l2.38,3a.69.69,0,0,1-.12,1A.68.68,0,0,1,21.34,43.47Z"/><path class="cls-4" d="M37.22,63.33H8.73a.7.7,0,1,1,0-1.4H37.22a.7.7,0,0,1,0,1.4Z"/><path class="cls-4" d="M56.93,50.07H46a.7.7,0,0,1-.7-.7V36.72a6.16,6.16,0,0,1,12.29,0V49.37A.7.7,0,0,1,56.93,50.07Zm-10.19-1.4h9.49v-12a4.77,4.77,0,0,0-9.49,0Z"/></g></g></svg>