<svg xmlns="http://www.w3.org/2000/svg" viewBox="0 0 80 80"><defs><style>.cls-1{fill:none;}.cls-2{fill:#fdd5a9;}.cls-3{fill:#e9a0a7;}.cls-4{fill:#1e1e1e;}</style></defs><g id="Layer_2" data-name="Layer 2"><g id="Layer_1-2" data-name="Layer 1"><rect class="cls-1" width="80" height="80"/><path class="cls-2" d="M68.21,48H43.13V48c6.36-2.06,11.16-6.65,11.16-14,0-3.35-1.07-7.46-5.5-11.35A14.18,14.18,0,0,0,43.09,34V50.61a14.2,14.2,0,0,0,28.4,0V47.29A7.24,7.24,0,0,1,68.21,48Z"/><path class="cls-3" d="M57.29,19.76a14.1,14.1,0,0,0-8.5,2.83c4.43,3.89,5.5,8,5.5,11.35,0,7.36-4.8,12-11.16,14V48H68.21a7.24,7.24,0,0,0,3.28-.73V34A14.2,14.2,0,0,0,57.29,19.76Z"/><path class="cls-4" d="M16.19,27.67a.7.7,0,0,1-.69-.57c-.27-1.33-2.69-1.39-2.71-1.39a.7.7,0,0,1,0-1.4h0c.14,0,3.58,0,4.07,2.52a.69.69,0,0,1-.54.82Z"/><path class="cls-4" d="M16.19,27.67a.7.7,0,0,1-.69-.57c-.49-2.47,2.66-3.84,2.79-3.89a.69.69,0,0,1,.92.37.71.71,0,0,1-.37.92s-2.23,1-2,2.33a.69.69,0,0,1-.54.82Z"/><path class="cls-4" d="M47.44,72H26.57a.71.71,0,0,1-.7-.7V60a.7.7,0,0,1,.27-.55l2.66-2.1a.72.72,0,0,1,.43-.15H44.79a.72.72,0,0,1,.43.15l2.66,2.1a.7.7,0,0,1,.27.55V71.29A.71.71,0,0,1,47.44,72ZM27.27,70.58H46.74V60.31l-2.19-1.74H29.47l-2.2,1.74Z"/><path class="cls-4" d="M44.79,31.67H29.23a.7.7,0,0,1-.7-.7V19a.7.7,0,0,1,.7-.7H44.79a.7.7,0,0,1,.7.7V31A.7.7,0,0,1,44.79,31.67Zm-14.86-1.4H44.09V19.68H29.93Z"/><path class="cls-4" d="M37.36,26.11a.7.7,0,0,1-.7-.7V22.17a.7.7,0,0,1,1.4,0v3.24A.7.7,0,0,1,37.36,26.11Z"/><path class="cls-4" d="M37.36,26.11H34.13a.7.7,0,1,1,0-1.4h3.23a.7.7,0,0,1,0,1.4Z"/><path class="cls-4" d="M37,58.57a.7.7,0,0,1-.7-.7V31a.7.7,0,0,1,1.4,0v26.9A.7.7,0,0,1,37,58.57Z"/><path class="cls-4" d="M39.39,19.68H34.63a.7.7,0,0,1-.7-.7V14.53a2.67,2.67,0,0,1,2.66-2.66h.84a2.67,2.67,0,0,1,2.66,2.66V19A.7.7,0,0,1,39.39,19.68Zm-4.06-1.4h3.36V14.53a1.26,1.26,0,0,0-1.26-1.26h-.84a1.26,1.26,0,0,0-1.26,1.26Z"/><path class="cls-4" d="M42.13,9.42H31.89a.71.71,0,0,1,0-1.41H42.13a.71.71,0,0,1,0,1.41Z"/><path class="cls-4" d="M44.79,58.57H29.23a.7.7,0,0,1-.7-.7V10.81a.7.7,0,1,1,1.4,0V57.17H44.09V10.81a.7.7,0,0,1,1.4,0V57.87A.7.7,0,0,1,44.79,58.57Z"/><path class="cls-4" d="M44.79,11.51a.73.73,0,0,1-.44-.15L41.7,9.26a.69.69,0,0,1-.12-1,.7.7,0,0,1,1-.11l2.66,2.09a.7.7,0,0,1,.12,1A.72.72,0,0,1,44.79,11.51Z"/><path class="cls-4" d="M29.23,11.51a.7.7,0,0,1-.43-1.25l2.65-2.09a.71.71,0,0,1,1,.11.7.7,0,0,1-.12,1l-2.66,2.1A.68.68,0,0,1,29.23,11.51Z"/><path class="cls-4" d="M41.07,72H33a.71.71,0,0,1-.7-.7V63.11a.7.7,0,0,1,.7-.7h8.12a.7.7,0,0,1,.7.7v8.18A.71.71,0,0,1,41.07,72Zm-7.42-1.41h6.72V63.81H33.65Z"/><path class="cls-4" d="M54.44,72H19.58a.71.71,0,0,1,0-1.41H54.44a.71.71,0,0,1,0,1.41Z"/><path class="cls-4" d="M70.67,72a.7.7,0,0,1-.65-.46L58,38.71a1.15,1.15,0,0,0-2.16,0l-4.76,13-3,8.91a.7.7,0,0,1-1.33-.44l3-8.93,4.76-13a2.56,2.56,0,0,1,4.8,0L71.33,71a.7.7,0,0,1-.42.9A.69.69,0,0,1,70.67,72Z"/><path class="cls-4" d="M8.51,72A.71.71,0,0,1,7.86,71l8.79-24a2.68,2.68,0,0,1,2.54-1.77h0A2.68,2.68,0,0,1,21.72,47l5,13.77a.68.68,0,0,1-.41.89.69.69,0,0,1-.9-.41l-5-13.76a1.29,1.29,0,0,0-1.22-.86h0a1.28,1.28,0,0,0-1.22.86l-8.8,24A.7.7,0,0,1,8.51,72Z"/></g></g></svg>