<svg id="Layer_1" data-name="Layer 1" xmlns="http://www.w3.org/2000/svg" viewBox="0 0 80 80"><defs><style>.cls-1{fill:#e9a0a7;}.cls-2{fill:#fdd5a9;}.cls-3,.cls-4{fill:none;}.cls-3{stroke:#1d1d1b;stroke-linecap:round;stroke-miterlimit:10;stroke-width:1.5px;}</style></defs><path class="cls-1" d="M32.82,35.35H27.76A4.43,4.43,0,0,1,25,34.22l-9.37-9.36a4.45,4.45,0,0,1-1.13-2.72v-8.9A4.23,4.23,0,0,1,18.6,9.09c3.67,0,6,4.08,9.06,12.3Z"/><path class="cls-2" d="M40.38,55.84a4.28,4.28,0,0,1,.29,1.63A4.61,4.61,0,0,1,36.07,62H21a6.5,6.5,0,0,1-6.5-6.51v-42c0-.08,0-.15,0-.22v8.9a4.45,4.45,0,0,0,1.13,2.72L25,34.22a4.43,4.43,0,0,0,2.72,1.13h5.06Z"/><path d="M49.65,36.75l.1,0h0l3.06.83a2.84,2.84,0,0,0,.66.08,2.52,2.52,0,0,0,2.08-1.1l.88-1.27a.2.2,0,0,1,.19-.08h0a.2.2,0,0,1,.14.18l.06.67c0,.39.06.74.08,1.08a2.19,2.19,0,0,0,1.62,2c2.76.75,5.53,1.48,8.29,2.22a2.22,2.22,0,0,0,.57.07,2.2,2.2,0,0,0,1.81-1l.26-.38c.69-1,1.37-2,2-3a1.64,1.64,0,0,0,.26-.88,22.22,22.22,0,0,0-2.77-10.92c-.29-.54-.63-1.07-1-1.59a.07.07,0,0,0,0-.05,19.94,19.94,0,0,0-3.88-4.49,1,1,0,0,0-.23-.24l-.56-.44h0l0,0-.1-.08-.46-.36a16.58,16.58,0,0,0-1.72-1.2C60,16.1,58.92,15.56,57.75,15l-1.47-.73a.21.21,0,0,1-.1-.25l.19-.54c.17-.45.34-1,.52-1.48.09-.3.12-.43.09-.53a1.29,1.29,0,0,0-.65-.59l-.13,0c-.31,0-.48.38-.52.49-.2.54-.88,2.44-.88,2.44a.22.22,0,0,1-.19.13l-.17,0a1.5,1.5,0,0,1-.32-.07,13.84,13.84,0,0,0-3.79-.65h-.12c-9.31.14-16.31,4-20.83,11.49a1.74,1.74,0,0,0-.25,1c.05,1.43.16,2.85.26,4.23a2,2,0,0,0,1.5,1.83c2.82.76,5.64,1.52,8.46,2.26a2.69,2.69,0,0,0,.71.1,1.89,1.89,0,0,0,1.62-1l1-1.46a.2.2,0,0,1,.19-.08h0a.2.2,0,0,1,.15.18l0,.51c0,.35.07.66.09,1a2.57,2.57,0,0,0,1.93,2.33l2.95.8a.19.19,0,0,1,.15.23l0,.2a3.29,3.29,0,0,1-.07.36l-1.23,4.59q-1.72,6.42-3.43,12.84a.91.91,0,0,1-.87.66c-2.06,0-7.55,0-10.82,0H24.32a7.12,7.12,0,0,0-3.39.84c-2.46,1.36-2.76,3.51-2.88,6a1.14,1.14,0,0,0,.3.83,1.12,1.12,0,0,0,.81.35l2.12,0h.15c-.32.7-.65,1.41-1,2.12l-.76,1.68a3.06,3.06,0,0,0-.23,2.4,2.26,2.26,0,0,0,1.11,1.2,3,3,0,0,0,1.13.24A3,3,0,0,0,24.15,69l.4-.87c.66-1.47,1.33-2.93,2-4.41a5.53,5.53,0,0,1,.34-.5H27a.65.65,0,0,1,.33-.11H40.85a.24.24,0,0,1,.16.07.28.28,0,0,1,0,.18c-.19.7-.82,2.89-1.88,6.5a.72.72,0,0,0,.11.62.7.7,0,0,0,.57.29h0a.72.72,0,0,0,.69-.52c.25-.92.57-2,.89-3.2.4-1.39.79-2.78,1-3.76a.2.2,0,0,1,.18-.15h.14l.31,0h9.44a.91.91,0,0,1,.75.43c.69,1.44,1.35,2.9,2,4.43l.46,1a3,3,0,0,0,2.45,1.75,3,3,0,0,0,1.13-.24,2.21,2.21,0,0,0,1.1-1.2,3,3,0,0,0-.22-2.4l-.69-1.52C59,64.2,58.49,63,57.93,61.84a1.15,1.15,0,0,1,.23-1.29q4.86-4.86,9.7-9.75l1.25-1.25a1.35,1.35,0,0,0,.48-1.19,1.27,1.27,0,0,0-.94-.83c-.74-.26-1.49-.51-2.23-.75a6.67,6.67,0,0,0-2.12-.34,6.9,6.9,0,0,0-4.91,2.07l-.54.54q-2.62,2.67-5.24,5.36a2.5,2.5,0,0,1-1.84.77l-4.14,0H45.42l-.33,0-.18,0a.19.19,0,0,1-.14-.09.18.18,0,0,1,0-.16l4.81-17.95A.18.18,0,0,1,49.65,36.75Zm8.88-17.37,0-.21-.12-2.07a.21.21,0,0,1,.09-.18l.09,0h.11a20.39,20.39,0,0,1,4.26,2.84,23.38,23.38,0,0,1,4,4.47,20.86,20.86,0,0,1,3,7.08c.18.85.31,1.69.44,2.64.06.42.12.84.19,1.28a.2.2,0,0,1-.06.18.19.19,0,0,1-.15.05h0L58.46,32.27a.19.19,0,0,1-.15-.2c0-.79.1-1.57.16-2.36.13-1.78.25-3.46.26-5.17S58.63,21.08,58.53,19.38ZM58.2,33.71a.17.17,0,0,1,.12,0h.06l11.4,3.06a.19.19,0,0,1,.14.12.22.22,0,0,1,0,.18l-.46.69c-.48.72-.94,1.41-1.43,2.08-.13.19-.46.2-.55.2a.88.88,0,0,1-.24,0c-2.77-.73-5.53-1.47-8.3-2.23-.17-.05-.51-.25-.54-.51-.08-.82-.13-1.64-.2-2.5l0-.85A.19.19,0,0,1,58.2,33.71Zm-33,29.49h0a.25.25,0,0,1,0,.12L24.45,65c-.57,1.26-1.14,2.51-1.72,3.76a1.07,1.07,0,0,1-1.46.62,1.08,1.08,0,0,1-.51-1.51c.34-.78.7-1.55,1.09-2.41l1.09-2.38h.67a5.52,5.52,0,0,1,.58,0h.88S25.13,63.12,25.24,63.2Zm32.91,2.37c.35.77.71,1.55,1.05,2.33a1.08,1.08,0,0,1-.51,1.51,1.1,1.1,0,0,1-.47.1,1.12,1.12,0,0,1-1-.72L55.51,65l-.78-1.72a.21.21,0,0,1,.1-.27l1.61-.73.08,0h.07a.2.2,0,0,1,.11.11Zm-6.28-9a3.49,3.49,0,0,0,2.67-1.13c.85-.88,1.7-1.74,2.56-2.61,1-1.07,2.1-2.13,3.13-3.22a5.22,5.22,0,0,1,3.88-1.83,8.05,8.05,0,0,1,3.49,1s.07.13.08.17a.33.33,0,0,1-.08.21,1.07,1.07,0,0,1-.14.16L56,60.81a3.16,3.16,0,0,1-2.38.92h-34a.2.2,0,0,1-.2-.18,4.83,4.83,0,0,1,1.19-3.67A4.63,4.63,0,0,1,24,56.47l15.7,0ZM53.4,15.07a1.35,1.35,0,0,1,.43.08c.4.14.82.25,1.24.37s.79.23,1.17.36a.84.84,0,0,1,.51.59,47.78,47.78,0,0,1,.12,14.91,1.31,1.31,0,0,1-.09.26.22.22,0,0,1-.22.12h0l-11.95-3.2a.2.2,0,0,1-.13-.12.17.17,0,0,1,0-.17c.25-.52.5-1.05.74-1.57.54-1.14,1-2.22,1.62-3.3a36.76,36.76,0,0,1,5.68-7.85A1.22,1.22,0,0,1,53.4,15.07ZM42.3,29.64l-.47.71c-.45.68-.88,1.33-1.33,2a.93.93,0,0,1-.66.3l-.13,0c-2.87-.74-5.68-1.49-8.36-2.24a.93.93,0,0,1-.58-.67c-.08-.76-.13-1.53-.17-2.35l-.06-.84a.23.23,0,0,1,.08-.17.25.25,0,0,1,.12,0h.06l11.39,3a.24.24,0,0,1,.14.12A.22.22,0,0,1,42.3,29.64ZM43.2,28a.21.21,0,0,1-.22.13h0L31.12,25a.2.2,0,0,1-.13-.12.23.23,0,0,1,0-.18,21.2,21.2,0,0,1,17.84-10,18.09,18.09,0,0,1,2.1.12.21.21,0,0,1,.17.13.23.23,0,0,1,0,.21A39.36,39.36,0,0,0,43.2,28Zm2,6.08c-.24-.07-.58-.32-.61-.6-.08-.77-.13-1.55-.19-2.43l-.06-.86a.2.2,0,0,1,.2-.21h0L56,33a.2.2,0,0,1,.13.12.21.21,0,0,1,0,.19l-.46.68c-.49.73-1,1.43-1.46,2.12a.61.61,0,0,1-.49.17.8.8,0,0,1-.25,0Q49.3,35.2,45.19,34.07Z"/><circle class="cls-3" cx="15.04" cy="23.17" r="6.54"/><rect class="cls-4" width="80" height="80"/></svg>