<svg xmlns="http://www.w3.org/2000/svg" viewBox="0 0 80 80"><defs><style>.cls-1,.cls-5{fill:none;}.cls-2{fill:#fdd5a9;}.cls-3{fill:#e9a0a7;}.cls-4{fill:#1e1e1e;}.cls-5{stroke:#1d1d1b;stroke-linecap:round;stroke-linejoin:round;stroke-width:1.4px;}</style></defs><g id="Layer_2" data-name="Layer 2"><g id="Layer_1-2" data-name="Layer 1"><rect class="cls-1" width="80" height="80"/><path class="cls-2" d="M68.73,37.09H43.67V37C50,35,54.82,30.37,54.82,23c0-3.36-1.07-7.46-5.5-11.35A14.19,14.19,0,0,0,43.63,23V39.67a14.19,14.19,0,1,0,28.37,0V36.36A7.17,7.17,0,0,1,68.73,37.09Z"/><path class="cls-3" d="M57.82,8.86a14.15,14.15,0,0,0-8.5,2.82c4.43,3.89,5.5,8,5.5,11.35,0,7.34-4.8,11.93-11.15,14v.07H68.73A7.17,7.17,0,0,0,72,36.36V23A14.18,14.18,0,0,0,57.82,8.86Z"/><path class="cls-4" d="M69.35,72H10.65a.7.7,0,0,1-.7-.7V60.45a.71.71,0,0,1,.5-.67c8.33-2.42,18.71-2.63,29.51-2.63H40c10.81,0,20.5.2,29.49,2.63a.69.69,0,0,1,.52.67V71.28A.7.7,0,0,1,69.35,72Zm-58-1.4h57.3V61C60,58.74,50.54,58.56,40,58.55H40c-10.48,0-20.54.2-28.61,2.43Z"/><path class="cls-4" d="M70.51,61.4a1.24,1.24,0,0,1-.33,0c-7.43-1.88-17.32-2.8-30.23-2.8h-.1c-9.11,0-19.81.33-30.08,2.71a1.32,1.32,0,0,1-1.35-.47,1.26,1.26,0,0,1-.12-1.38h0l1-2A2.75,2.75,0,0,1,11.16,56c9.86-2.35,18.29-2.83,28.69-2.83H40c12.43,0,21.09.88,28.93,3a2.74,2.74,0,0,1,1.75,1.4l1,2a1.26,1.26,0,0,1-.13,1.39A1.33,1.33,0,0,1,70.51,61.4Zm-61-1.34ZM40,57.16c12.92,0,22.86.91,30.38,2.8l-.93-1.8a1.33,1.33,0,0,0-.86-.69c-7.71-2-16.27-2.91-28.57-2.91h-.12c-10.3,0-18.64.47-28.37,2.79a1.38,1.38,0,0,0-.9.69l-1,1.88c10.3-2.43,21.06-2.76,30.23-2.76Z"/><path class="cls-4" d="M14.14,56.56a.79.79,0,0,1-.41-.13.71.71,0,0,1-.16-1L19,47.86a2.68,2.68,0,0,1,1.44-1,71.61,71.61,0,0,1,19.36-2.63,82,82,0,0,1,19.55,2.63A2.68,2.68,0,0,1,61,47.93c.82,1.18,1.67,2.31,2.49,3.39,1,1.3,2,2.63,3,4.1a.7.7,0,0,1-1.16.78c-1-1.43-2-2.76-2.93-4-.83-1.1-1.69-2.24-2.53-3.44a1.31,1.31,0,0,0-.77-.55,79.79,79.79,0,0,0-19.23-2.59,70,70,0,0,0-19,2.58,1.31,1.31,0,0,0-.69.5l-5.45,7.6A.69.69,0,0,1,14.14,56.56Z"/><path class="cls-4" d="M55.08,47.1a.68.68,0,0,1-.61-.35l-4.58-8a1.31,1.31,0,0,0-.76-.6,39.92,39.92,0,0,0-9.19-1,38.4,38.4,0,0,0-9.11,1,1.19,1.19,0,0,0-.73.56c-.7,1.14-1.39,2.41-2.06,3.63-.81,1.49-1.65,3-2.53,4.4A.7.7,0,1,1,24.34,46c.85-1.32,1.67-2.84,2.47-4.31.68-1.24,1.38-2.52,2.09-3.69a2.58,2.58,0,0,1,1.6-1.19A38.74,38.74,0,0,1,40,35.76a41.59,41.59,0,0,1,9.51,1.06,2.69,2.69,0,0,1,1.64,1.27l4.58,8a.7.7,0,0,1-.26,1A.72.72,0,0,1,55.08,47.1Z"/><path class="cls-4" d="M33.37,37.16a1,1,0,0,1-.24,0,.7.7,0,0,1-.41-.9c.34-.93.67-1.77,1-2.61a50.36,50.36,0,0,0,2.16-6.3c.9-3.42,1.64-6.94,2.2-10.44a.71.71,0,0,1,.81-.58.7.7,0,0,1,.58.8c-.58,3.55-1.33,7.11-2.24,10.58A50.73,50.73,0,0,1,35,34.13c-.33.83-.66,1.66-1,2.57A.7.7,0,0,1,33.37,37.16Z"/><path class="cls-4" d="M46.63,37.16A.7.7,0,0,1,46,36.7c-.34-.91-.67-1.74-1-2.57a50.73,50.73,0,0,1-2.21-6.46c-.91-3.47-1.66-7-2.24-10.58a.7.7,0,0,1,.58-.8.71.71,0,0,1,.81.58c.56,3.5,1.31,7,2.2,10.44a50.36,50.36,0,0,0,2.16,6.3c.34.84.67,1.68,1,2.61a.7.7,0,0,1-.41.9A1,1,0,0,1,46.63,37.16Z"/><path class="cls-4" d="M42.7,17.56H37.3a.7.7,0,0,1-.7-.7V14.05a.69.69,0,0,1,.27-.55l2.69-2.16a.72.72,0,0,1,.88,0l2.7,2.16a.71.71,0,0,1,.26.55v2.81A.7.7,0,0,1,42.7,17.56ZM38,16.16h4V14.38l-2-1.6-2,1.6Z"/><path class="cls-4" d="M40,12a.7.7,0,0,1-.7-.7V8.79a.7.7,0,1,1,1.4,0v2.55A.7.7,0,0,1,40,12Z"/><path class="cls-5" d="M20.7,71.25l-5.48,0c0-2.16,0-3.24,0-5.4A2.93,2.93,0,0,1,17.91,63H18a2.51,2.51,0,0,1,2.7,2.58Z"/><path class="cls-5" d="M31.54,71.21l-5.49,0c0-2.34,0-3.5,0-5.83a2.92,2.92,0,0,1,2.7-3h.09a2.7,2.7,0,0,1,2.7,2.83Z"/><path class="cls-5" d="M42.37,71.2H36.88v-6a2.84,2.84,0,0,1,2.7-3h.09a2.84,2.84,0,0,1,2.7,3Z"/><path class="cls-5" d="M53.2,71.23l-5.48,0V65.26a2.7,2.7,0,0,1,2.71-2.83h.08a2.92,2.92,0,0,1,2.7,3C53.21,67.73,53.21,68.89,53.2,71.23Z"/><path class="cls-5" d="M64,71.28l-5.49,0V65.6A2.53,2.53,0,0,1,61.26,63h.08A2.93,2.93,0,0,1,64,65.88Z"/><path class="cls-4" d="M16.52,24.19a5.5,5.5,0,1,1,5.5-5.5A5.51,5.51,0,0,1,16.52,24.19Zm0-9.6a4.1,4.1,0,1,0,4.1,4.1A4.11,4.11,0,0,0,16.52,14.59Z"/></g></g></svg>