<svg xmlns="http://www.w3.org/2000/svg" viewBox="0 0 80 80"><defs><style>.cls-1{fill:none;}.cls-2{fill:#e9a0a7;}.cls-3{fill:#fdd5a9;}.cls-4{fill:#1e1e1e;}</style></defs><g id="Layer_2" data-name="Layer 2"><g id="Layer_1-2" data-name="Layer 1"><rect class="cls-1" width="80" height="80"/><path class="cls-2" d="M60.7,31a1.41,1.41,0,0,0-1.41,1.41V53h4.64c4.51,0,6.77-3.65,6.77-8.7V31Z"/><path class="cls-3" d="M66.33,8c-4,0-6.53,7-8.51,12.61L50.75,40.68C49.83,43.3,48.58,47,48.58,49c0,2.28,1.37,4,4.62,4h6.09V32.43A1.41,1.41,0,0,1,60.7,31h10V16C70.7,11.29,69.73,8,66.33,8Z"/><path class="cls-4" d="M58.66,42.25a.7.7,0,0,1-.7-.7c0-1.62,0-4.63,3.06-4.63a.7.7,0,1,1,0,1.4c-1.29,0-1.66.73-1.66,3.23A.7.7,0,0,1,58.66,42.25Z"/><path class="cls-4" d="M71.2,72h-15a.7.7,0,1,1,0-1.4H70.5V39.79a1.56,1.56,0,0,0-1.09-1.48.7.7,0,1,1,.4-1.34,3,3,0,0,1,2.09,2.82V71.32A.7.7,0,0,1,71.2,72Z"/><path class="cls-4" d="M61,38.32a.7.7,0,0,1-.7-.66,9,9,0,0,1,.53-4.29A6,6,0,0,1,64,30.7c.3-.15.6-.3.9-.47a.7.7,0,0,1,1,.27.69.69,0,0,1-.27.95c-.32.18-.64.34-1,.5a4.8,4.8,0,0,0-2.52,2,7.75,7.75,0,0,0-.39,3.62.7.7,0,0,1-.67.73Z"/><path class="cls-4" d="M69.42,38.32h0a.7.7,0,0,1-.67-.73A7.75,7.75,0,0,0,68.33,34a4.8,4.8,0,0,0-2.52-2c-.32-.16-.64-.32-1-.5a.69.69,0,0,1-.27-.95.7.7,0,0,1,1-.27c.3.17.6.32.9.47a6,6,0,0,1,3.16,2.67,9,9,0,0,1,.53,4.29A.7.7,0,0,1,69.42,38.32Z"/><path class="cls-4" d="M17,48.53H12.74a.7.7,0,0,1-.7-.7V43.39a2.66,2.66,0,0,1,2.66-2.66h.35a2.67,2.67,0,0,1,2.67,2.66v4.44A.7.7,0,0,1,17,48.53Zm-3.57-1.4h2.87V43.39a1.25,1.25,0,0,0-1.26-1.26H14.7a1.26,1.26,0,0,0-1.26,1.26Z"/><path class="cls-4" d="M67,48.53H62.74a.7.7,0,0,1-.7-.7V43.39a2.66,2.66,0,0,1,2.66-2.66h.35a2.66,2.66,0,0,1,2.66,2.66v4.44A.7.7,0,0,1,67,48.53Zm-3.57-1.4h2.87V43.39a1.25,1.25,0,0,0-1.26-1.26H64.7a1.25,1.25,0,0,0-1.26,1.26Z"/><path class="cls-4" d="M17,61.43H12.74a.7.7,0,0,1-.7-.7V56.28a2.66,2.66,0,0,1,2.66-2.65h.35a2.67,2.67,0,0,1,2.67,2.65v4.45A.7.7,0,0,1,17,61.43ZM13.44,60h2.87V56.28A1.25,1.25,0,0,0,15.05,55H14.7a1.26,1.26,0,0,0-1.26,1.25Z"/><path class="cls-4" d="M29.83,55H25.56a.7.7,0,0,1-.7-.7V49.86a2.66,2.66,0,0,1,2.66-2.65h.36a2.65,2.65,0,0,1,2.65,2.65v4.45A.7.7,0,0,1,29.83,55Zm-3.57-1.4h2.87V49.86a1.25,1.25,0,0,0-1.25-1.25h-.36a1.25,1.25,0,0,0-1.26,1.25Z"/><path class="cls-4" d="M54.47,55H50.19a.7.7,0,0,1-.7-.7V49.86a2.66,2.66,0,0,1,2.66-2.65h.36a2.66,2.66,0,0,1,2.66,2.65v4.45A.7.7,0,0,1,54.47,55Zm-3.58-1.4h2.88V49.86a1.26,1.26,0,0,0-1.26-1.25h-.36a1.26,1.26,0,0,0-1.26,1.25Z"/><path class="cls-4" d="M42,47H37.76a.7.7,0,0,1-.71-.7V41.86a2.67,2.67,0,0,1,2.66-2.66h.36a2.66,2.66,0,0,1,2.66,2.66V46.3A.7.7,0,0,1,42,47Zm-3.57-1.4h2.87V41.86a1.26,1.26,0,0,0-1.26-1.26h-.36a1.25,1.25,0,0,0-1.25,1.26Z"/><path class="cls-4" d="M29.83,41.57H25.56a.7.7,0,0,1-.7-.7V36.42a2.66,2.66,0,0,1,2.66-2.66h.36a2.66,2.66,0,0,1,2.65,2.66v4.45A.7.7,0,0,1,29.83,41.57Zm-3.57-1.4h2.87V36.42a1.26,1.26,0,0,0-1.25-1.26h-.36a1.26,1.26,0,0,0-1.26,1.26Z"/><path class="cls-4" d="M67,61.43H62.74a.7.7,0,0,1-.7-.7V56.28a2.66,2.66,0,0,1,2.66-2.65h.35a2.66,2.66,0,0,1,2.66,2.65v4.45A.7.7,0,0,1,67,61.43ZM63.44,60h2.87V56.28A1.25,1.25,0,0,0,65.05,55H64.7a1.25,1.25,0,0,0-1.26,1.25Z"/><path class="cls-4" d="M54.47,41.57H50.19a.71.71,0,0,1-.7-.7V36.42a2.67,2.67,0,0,1,2.66-2.66h.36a2.67,2.67,0,0,1,2.66,2.66v4.45A.71.71,0,0,1,54.47,41.57Zm-3.58-1.4h2.88V36.42a1.27,1.27,0,0,0-1.26-1.26h-.36a1.27,1.27,0,0,0-1.26,1.26Z"/><path class="cls-4" d="M42,33.56H37.76a.7.7,0,0,1-.71-.7V28.41a2.67,2.67,0,0,1,2.66-2.66h.36a2.67,2.67,0,0,1,2.66,2.66v4.45A.7.7,0,0,1,42,33.56Zm-3.57-1.4h2.87V28.41a1.27,1.27,0,0,0-1.26-1.26h-.36a1.26,1.26,0,0,0-1.25,1.26Z"/><path class="cls-4" d="M45.87,72H33.92a.7.7,0,0,1-.7-.7V24.39a3,3,0,0,1,2.1-2.82.7.7,0,0,1,.4,1.34,1.55,1.55,0,0,0-1.1,1.48V70.62H45.17V24.39A1.55,1.55,0,0,0,44,22.9a.71.71,0,0,1-.51-.85.7.7,0,0,1,.86-.5,2.93,2.93,0,0,1,2.2,2.84V71.32A.7.7,0,0,1,45.87,72Z"/><path class="cls-4" d="M44.25,22.92h0a.7.7,0,0,1-.67-.73,7.62,7.62,0,0,0-.4-3.62,4.81,4.81,0,0,0-2.54-2l-1-.49a.71.71,0,0,1-.28-1,.7.7,0,0,1,1-.27l.91.47A6,6,0,0,1,44.42,18,9,9,0,0,1,45,22.26.7.7,0,0,1,44.25,22.92Z"/><path class="cls-4" d="M35.72,22.92a.69.69,0,0,1-.7-.66A8.88,8.88,0,0,1,35.55,18a6,6,0,0,1,3.18-2.67l.92-.47a.7.7,0,0,1,1,.27.72.72,0,0,1-.28,1l-1,.49a4.88,4.88,0,0,0-2.55,2,7.75,7.75,0,0,0-.39,3.62.71.71,0,0,1-.67.73Z"/><path class="cls-4" d="M45.87,34.54a.7.7,0,0,1-.7-.7c0-1.61,0-4.62,3.1-4.62a.7.7,0,1,1,0,1.4c-1.47,0-1.7.95-1.7,3.22A.7.7,0,0,1,45.87,34.54Z"/><path class="cls-4" d="M58.66,72H44.34a.7.7,0,1,1,0-1.4H58V32.09a1.55,1.55,0,0,0-1.12-1.48.7.7,0,1,1,.39-1.34,3,3,0,0,1,2.13,2.82V71.32A.7.7,0,0,1,58.66,72Z"/><path class="cls-4" d="M48.21,30.62a.7.7,0,0,1-.7-.67,8.91,8.91,0,0,1,.54-4.29A6.12,6.12,0,0,1,51.27,23c.31-.15.62-.3.92-.47a.7.7,0,0,1,1,.28.69.69,0,0,1-.28.95c-.32.18-.65.34-1,.5a4.87,4.87,0,0,0-2.58,2,7.75,7.75,0,0,0-.4,3.62.7.7,0,0,1-.66.73Z"/><path class="cls-4" d="M56.84,30.62h0a.7.7,0,0,1-.67-.73,7.62,7.62,0,0,0-.4-3.62,4.88,4.88,0,0,0-2.57-2c-.33-.16-.65-.32-1-.5a.7.7,0,1,1,.67-1.23c.31.17.62.32.92.47A6.08,6.08,0,0,1,57,25.66,8.79,8.79,0,0,1,57.54,30,.7.7,0,0,1,56.84,30.62Z"/><path class="cls-4" d="M33.92,34.54a.7.7,0,0,1-.7-.7c0-2.5-.38-3.22-1.66-3.22a.7.7,0,0,1,0-1.4c3.06,0,3.06,3,3.06,4.62A.7.7,0,0,1,33.92,34.54Z"/><path class="cls-4" d="M37.76,72H21.37a.7.7,0,0,1-.7-.7V32.09a3,3,0,0,1,2.09-2.82.7.7,0,0,1,.4,1.34,1.55,1.55,0,0,0-1.09,1.48V70.62H37.76a.7.7,0,1,1,0,1.4Z"/><path class="cls-4" d="M31.62,30.62h0a.7.7,0,0,1-.66-.73,7.88,7.88,0,0,0-.4-3.62,4.8,4.8,0,0,0-2.52-2c-.32-.16-.64-.32-1-.5a.7.7,0,0,1-.27-.95.69.69,0,0,1,.95-.27l.91.46a6,6,0,0,1,3.16,2.68A9,9,0,0,1,32.31,30,.69.69,0,0,1,31.62,30.62Z"/><path class="cls-4" d="M23.15,30.62a.7.7,0,0,1-.7-.67A9,9,0,0,1,23,25.67,6,6,0,0,1,26.14,23l.9-.46a.7.7,0,1,1,.68,1.22c-.31.18-.64.34-.95.5a4.8,4.8,0,0,0-2.52,2,7.75,7.75,0,0,0-.4,3.62.7.7,0,0,1-.66.73Z"/><path class="cls-4" d="M21.37,42.25a.7.7,0,0,1-.7-.7c0-2.28-.23-3.23-1.68-3.23a.7.7,0,0,1,0-1.4c3.08,0,3.08,3,3.08,4.63A.7.7,0,0,1,21.37,42.25Z"/><path class="cls-4" d="M23.26,72H8.72a.7.7,0,0,1-.71-.7V39.79A3,3,0,0,1,10.12,37a.7.7,0,0,1,.4,1.34,1.55,1.55,0,0,0-1.1,1.48V70.62H23.26a.7.7,0,1,1,0,1.4Z"/><path class="cls-4" d="M19.05,38.32h0a.7.7,0,0,1-.67-.73A7.75,7.75,0,0,0,18,34a4.85,4.85,0,0,0-2.54-2l-1-.49a.71.71,0,0,1-.27-1,.7.7,0,0,1,.95-.27c.3.17.61.32.91.47a6.09,6.09,0,0,1,3.19,2.67,9,9,0,0,1,.53,4.29A.7.7,0,0,1,19.05,38.32Z"/><path class="cls-4" d="M10.51,38.32a.69.69,0,0,1-.69-.66,8.88,8.88,0,0,1,.53-4.29,6,6,0,0,1,3.18-2.67c.31-.15.61-.3.91-.47a.7.7,0,0,1,.68,1.23l-1,.49a4.85,4.85,0,0,0-2.54,2,7.75,7.75,0,0,0-.4,3.62.69.69,0,0,1-.66.73Z"/><path class="cls-4" d="M17.83,18.23a.7.7,0,0,1-.69-.58C16.81,15.59,14,16,13.85,16a.71.71,0,0,1-.8-.58.69.69,0,0,1,.59-.8c1.49-.23,4.44,0,4.88,2.78a.69.69,0,0,1-.58.8Z"/><path class="cls-4" d="M17.83,18.23a.7.7,0,0,1-.69-.58,4.09,4.09,0,0,1,2.93-4.48.7.7,0,0,1,.88.46.7.7,0,0,1-.45.88c-.1,0-2.32.78-2,2.91a.69.69,0,0,1-.58.8Z"/></g></g></svg>