<svg id="Layer_1" data-name="Layer 1" xmlns="http://www.w3.org/2000/svg" xmlns:xlink="http://www.w3.org/1999/xlink" viewBox="0 0 80 80"><defs><style>.cls-1,.cls-5{fill:none;}.cls-2{clip-path:url(#clip-path);}.cls-3{fill:#e9a0a7;}.cls-4{fill:#fdd5a9;}.cls-5{stroke:#1d1d1b;stroke-linecap:round;stroke-miterlimit:10;stroke-width:1.4px;}</style><clipPath id="clip-path"><rect class="cls-1" width="80" height="80"/></clipPath></defs><g id="Group_31488" data-name="Group 31488"><g class="cls-2"><g id="Group_31487" data-name="Group 31487"><path id="Path_42582" data-name="Path 42582" class="cls-3" d="M45.34,55.28c0,5.71,2.24,10,6.72,11V53.85a3.29,3.29,0,0,0-1.48-2.56l-5.24-3Z"/><path id="Path_42583" data-name="Path 42583" class="cls-4" d="M52.06,53.85V66.31a9.92,9.92,0,0,0,2,.21h1.37c6,0,9.67-4.25,12.2-11.29L72,43.11V8.39H69a4.45,4.45,0,0,0-4.45,4.45V29.91H63.48c-2.51-8.09-8.63-18-16.18-18h-2V48.26l5.24,3a3.29,3.29,0,0,1,1.48,2.56"/><path id="Path_42584" data-name="Path 42584" class="cls-5" d="M11.49,69.54,36.34,31A1.21,1.21,0,0,1,38,30.6a1.33,1.33,0,0,1,.36.35L64,69.53a1.22,1.22,0,0,1-1,1.89H12.52A1.22,1.22,0,0,1,11.3,70.2,1.21,1.21,0,0,1,11.49,69.54Z"/><path id="Path_42585" data-name="Path 42585" class="cls-5" d="M36.89,40.64l-12.2,30.1a.48.48,0,0,0,.27.64.37.37,0,0,0,.18,0h24.2a.49.49,0,0,0,.49-.49.34.34,0,0,0,0-.18l-12-30.11a.49.49,0,0,0-.64-.27A.48.48,0,0,0,36.89,40.64Z"/><path id="Path_42586" data-name="Path 42586" class="cls-5" d="M64.53,56.26a5.56,5.56,0,0,0,2.92-4.9,1.36,1.36,0,0,0,0-.2A5.57,5.57,0,0,0,67,40.32a5.57,5.57,0,1,0-10.19.19,5.56,5.56,0,0,0-.5,10.37,3.87,3.87,0,0,0,0,.48,5.58,5.58,0,0,0,2.86,4.87"/><line id="Line_117" data-name="Line 117" class="cls-5" x1="61.86" y1="44.43" x2="61.86" y2="63.47"/><line id="Line_118" data-name="Line 118" class="cls-5" x1="60.15" y1="63.47" x2="68.63" y2="63.47"/><line id="Line_119" data-name="Line 119" class="cls-5" x1="64.66" y1="46.99" x2="61.86" y2="50.54"/><line id="Line_120" data-name="Line 120" class="cls-5" x1="59.06" y1="43.86" x2="61.86" y2="47.42"/><path id="Path_42587" data-name="Path 42587" class="cls-5" d="M20.38,47.06a5.56,5.56,0,0,0,2.92-4.9c0-.07,0-.13,0-.2a5.57,5.57,0,0,0-.43-10.84,5.57,5.57,0,1,0-10.19.19,5.56,5.56,0,0,0-.5,10.37c0,.16,0,.32,0,.48A5.58,5.58,0,0,0,15,47"/><line id="Line_121" data-name="Line 121" class="cls-5" x1="17.71" y1="35.23" x2="17.71" y2="54.27"/><line id="Line_122" data-name="Line 122" class="cls-5" x1="8.85" y1="54.27" x2="20.73" y2="54.27"/><line id="Line_123" data-name="Line 123" class="cls-5" x1="14.91" y1="34.67" x2="17.71" y2="38.22"/></g></g></g></svg>