<svg id="Layer_1" data-name="Layer 1" xmlns="http://www.w3.org/2000/svg" xmlns:xlink="http://www.w3.org/1999/xlink" viewBox="0 0 80 80"><defs><style>.cls-1,.cls-5{fill:none;}.cls-2{clip-path:url(#clip-path);}.cls-3{fill:#e9a0a7;}.cls-4{fill:#fdd5a9;}.cls-5{stroke:#1d1d1b;stroke-linecap:round;stroke-miterlimit:10;stroke-width:1.4px;}</style><clipPath id="clip-path"><rect class="cls-1" width="80" height="80"/></clipPath></defs><g class="cls-2"><g id="Group_31066-2" data-name="Group 31066-2"><path id="Path_9887" data-name="Path 9887" class="cls-3" d="M59,37a1.85,1.85,0,0,0-1.85,1.85h0V65.85h6.1c5.93,0,8.9-4.8,8.9-11.45V37Z"/><path id="Path_9888" data-name="Path 9888" class="cls-4" d="M66.38,6.67c-5.27,0-8.59,9.25-11.19,16.58L45.9,49.65c-1.22,3.44-2.85,8.36-2.85,10.87,0,3,1.8,5.33,6.07,5.33h8v-27A1.85,1.85,0,0,1,59,37H72.14V17.22c0-6.22-1.29-10.55-5.76-10.55"/><path id="Path_9892" data-name="Path 9892" class="cls-5" d="M40.3,63.4l.52-.48L50,54.62a1.92,1.92,0,0,1,2.34,0l19,16.64"/><path id="Path_9893" data-name="Path 9893" class="cls-5" d="M50.25,71.25l-20.43-16a1.59,1.59,0,0,0-1.94,0l-19.29,16"/><path id="Path_9894" data-name="Path 9894" class="cls-5" d="M31.74,57a10.72,10.72,0,0,1-3.52,4.5C25.77,63.12,24,62,21.66,63.9a21.42,21.42,0,0,1-9,4"/><path id="Path_9895" data-name="Path 9895" class="cls-5" d="M55,57.28a10.59,10.59,0,0,1-3.52,4.5c-2.44,1.67-4.17.59-6.55,2.45a20.56,20.56,0,0,1-1.9,1.3"/><path d="M26.3,50.68a5.63,5.63,0,0,1-5.54-4.86c-.38-3-.85-6.88-.85-8.73s.47-5.77.85-8.73A5.63,5.63,0,0,1,26.3,23.5h7.33a.11.11,0,0,0,.09-.05l1.59-3.21a.61.61,0,0,1,.55-.34h2.69a.09.09,0,0,0,.1-.1V15.34a.11.11,0,0,0-.06-.1,2,2,0,0,1-1-.81.12.12,0,0,0-.08,0h0L18.52,19l-.16,0a.62.62,0,0,1-.32-.09.61.61,0,0,1-.28-.4.6.6,0,0,1,.08-.47.64.64,0,0,1,.39-.27l18.93-4.57a.08.08,0,0,0,.07-.08,2,2,0,0,1,.93-1.52,2,2,0,0,1,1.11-.33,2.05,2.05,0,0,1,1.73.94.12.12,0,0,0,.08,0h0L60,7.66h.15a.6.6,0,0,1,.6.47.62.62,0,0,1-.45.75L41.39,13.44a.11.11,0,0,0-.08.08A2.07,2.07,0,0,1,40,15.25a.1.1,0,0,0-.07.09V19.8a.1.1,0,0,0,.1.1h2.94a.61.61,0,0,1,.56.34l1.59,3.21a.12.12,0,0,0,.09.05h7.07a5.63,5.63,0,0,1,5.54,4.86c.38,2.95.85,6.86.85,8.73s-.47,5.78-.85,8.73a5.63,5.63,0,0,1-5.54,4.86H26.3Zm-5-13a.11.11,0,0,0-.08,0,.06.06,0,0,0,0,.07c.07,1.61.35,4.32.81,7.84a4.38,4.38,0,0,0,4.31,3.79H52.24a4.36,4.36,0,0,0,4.31-3.78c.46-3.53.75-6.24.82-7.84a.11.11,0,0,0,0-.08.09.09,0,0,0-.07,0H48.64a.1.1,0,0,0-.1.1v9.36a.63.63,0,0,1-.62.63H30.62a.63.63,0,0,1-.62-.63V37.81a.09.09,0,0,0-.1-.1ZM40,24.74a.09.09,0,0,0-.09.1V46.46a.1.1,0,0,0,.09.1H47.2a.1.1,0,0,0,.1-.1V24.84a.09.09,0,0,0-.1-.1Zm-8.64,0a.09.09,0,0,0-.1.1V46.46a.1.1,0,0,0,.1.1h7.2a.1.1,0,0,0,.1-.1V24.84a.09.09,0,0,0-.1-.1Zm17.29,0a.1.1,0,0,0-.1.1V36.37a.1.1,0,0,0,.1.1h8.63a.11.11,0,0,0,.07,0,.07.07,0,0,0,0-.07c-.07-1.6-.35-4.31-.81-7.84a4.38,4.38,0,0,0-4.31-3.79Zm-22.34,0A4.35,4.35,0,0,0,22,28.52c-.47,3.52-.75,6.24-.82,7.84a.11.11,0,0,0,0,.08.09.09,0,0,0,.07,0H29.9a.1.1,0,0,0,.1-.1V24.84a.09.09,0,0,0-.1-.1Zm10-3.6a.11.11,0,0,0-.09.05l-1,2.12a.09.09,0,0,0,0,.1.1.1,0,0,0,.09,0h8.29a.09.09,0,0,0,.08,0,.12.12,0,0,0,0-.1l-1.06-2.12a.11.11,0,0,0-.09-.05Zm3-8.65a.82.82,0,0,0-.82.82.81.81,0,0,0,.81.82.83.83,0,0,0,.58-.24.78.78,0,0,0,.24-.58.82.82,0,0,0-.81-.82Z"/><path d="M36.39,39.06a.62.62,0,0,1-.62-.62V36.28a.62.62,0,0,1,.62-.62.61.61,0,0,1,.62.62v2.16A.62.62,0,0,1,36.39,39.06Z"/><path d="M42.16,39.06a.65.65,0,0,1-.63-.62V36.28a.63.63,0,1,1,1.25,0v2.16A.62.62,0,0,1,42.16,39.06Z"/></g></g></svg>