<svg xmlns="http://www.w3.org/2000/svg" viewBox="0 0 80 80"><defs><style>.cls-1{fill:none;}.cls-2{fill:#fdd5a9;}.cls-3{fill:#e9a0a7;}.cls-4{fill:#1e1e1e;}</style></defs><g id="Layer_2" data-name="Layer 2"><g id="Layer_1-2" data-name="Layer 1"><rect class="cls-1" width="80" height="80"/><path id="Path_42583" data-name="Path 42583" class="cls-2" d="M13.3,46.84v9.65a7.54,7.54,0,0,0,1.57.16h1.07c4.64,0,7.48-3.29,9.44-8.74l3.38-9.38V11.65H26.41A3.44,3.44,0,0,0,23,15.09V28.31h-.82c-1.94-6.26-6.68-14-12.52-14H8.09V42.52l4.07,2.34a2.56,2.56,0,0,1,1.14,2"/><path id="Path_42582" data-name="Path 42582" class="cls-3" d="M8.09,48c0,4.43,1.74,7.77,5.21,8.54V46.84a2.54,2.54,0,0,0-1.14-2L8.09,42.52Z"/><path class="cls-4" d="M12.43,61.63a.7.7,0,0,1-.7-.7V48.6a4.26,4.26,0,0,1,3.91-4.05,4.25,4.25,0,0,1,3.91,4.05V50a.7.7,0,0,1-1.4,0V48.6A2.84,2.84,0,0,0,15.64,46a2.84,2.84,0,0,0-2.51,2.65V60.93A.7.7,0,0,1,12.43,61.63Z"/><path class="cls-4" d="M24.53,61.63a.7.7,0,0,1-.7-.7V48.6a4.25,4.25,0,0,1,3.91-4.05,4.25,4.25,0,0,1,3.91,4.05V50a.7.7,0,0,1-1.4,0V48.6A2.84,2.84,0,0,0,27.74,46a2.84,2.84,0,0,0-2.51,2.65V60.93A.7.7,0,0,1,24.53,61.63Z"/><path class="cls-4" d="M24.16,57.1H12.43a.7.7,0,1,1,0-1.4H24.16a.7.7,0,1,1,0,1.4Z"/><path class="cls-4" d="M71.26,51.53H8.93a.7.7,0,1,1,0-1.4H71.26a.7.7,0,1,1,0,1.4Z"/><path class="cls-4" d="M60.92,71.85A15.85,15.85,0,0,1,55.51,71a14.42,14.42,0,0,0-5-.77,14.42,14.42,0,0,0-5,.77,15.85,15.85,0,0,1-5.41.83A15.85,15.85,0,0,1,34.69,71a14.42,14.42,0,0,0-5-.77,14.42,14.42,0,0,0-5,.77,15.92,15.92,0,0,1-5.42.83A15.9,15.9,0,0,1,13.86,71a.7.7,0,0,1,.41-1.34,14.46,14.46,0,0,0,5,.77,14.48,14.48,0,0,0,5-.77,15.85,15.85,0,0,1,5.41-.83,15.85,15.85,0,0,1,5.41.83,14.42,14.42,0,0,0,5,.77,14.42,14.42,0,0,0,5-.77,15.85,15.85,0,0,1,5.41-.83,15.85,15.85,0,0,1,5.41.83,14.42,14.42,0,0,0,5,.77,14.42,14.42,0,0,0,5-.77.69.69,0,0,1,.87.46.7.7,0,0,1-.46.88A15.85,15.85,0,0,1,60.92,71.85Z"/><path class="cls-4" d="M60.92,63.23a15.85,15.85,0,0,1-5.41-.84,14.67,14.67,0,0,0-5-.76,14.76,14.76,0,0,0-5,.76,15.76,15.76,0,0,1-5.41.84,15.81,15.81,0,0,1-5.41-.84,14.71,14.71,0,0,0-5-.76,14.71,14.71,0,0,0-5,.76,15.81,15.81,0,0,1-5.41.84,15.87,15.87,0,0,1-5.42-.84,14.67,14.67,0,0,0-5-.76.7.7,0,1,1,0-1.4,15.85,15.85,0,0,1,5.41.83,14.73,14.73,0,0,0,5,.77,14.66,14.66,0,0,0,5-.77,15.85,15.85,0,0,1,5.41-.83,15.85,15.85,0,0,1,5.41.83,14.71,14.71,0,0,0,5,.77,14.62,14.62,0,0,0,5-.77,15.9,15.9,0,0,1,5.41-.83,15.81,15.81,0,0,1,5.41.83,16.62,16.62,0,0,0,10,0,15.85,15.85,0,0,1,5.41-.83.7.7,0,0,1,0,1.4,14.71,14.71,0,0,0-5,.76A15.81,15.81,0,0,1,60.92,63.23Z"/><path class="cls-4" d="M59.19,51.53H40.38a.7.7,0,1,1,0-1.4H59.19a.7.7,0,0,1,0,1.4Z"/><path class="cls-4" d="M41.81,35.23H31a.7.7,0,0,1-.51-1.18L44.06,19.14a.7.7,0,0,1,1,.95L32.54,33.82h9.27a.71.71,0,0,1,0,1.41Z"/><path class="cls-4" d="M71.23,35.23H59.91a.71.71,0,0,1,0-1.41h9.74L57.09,20.09a.7.7,0,0,1,0-1,.71.71,0,0,1,1,0L71.75,34.05a.69.69,0,0,1,.12.76A.7.7,0,0,1,71.23,35.23Z"/><path class="cls-4" d="M60.93,20.32H41.26a.7.7,0,0,1-.64-.42.69.69,0,0,1,.12-.76L50.58,8.38a.72.72,0,0,1,1,0l9.84,10.76a.73.73,0,0,1,.12.76A.7.7,0,0,1,60.93,20.32Zm-18.09-1.4h16.5l-8.25-9Z"/><path class="cls-4" d="M59.91,35.19a.68.68,0,0,1-.5-.22l-8.32-8.55L42.78,35a.7.7,0,1,1-1-1l8.82-9.08a.73.73,0,0,1,1,0L60.41,34a.7.7,0,0,1,0,1A.71.71,0,0,1,59.91,35.19Z"/><path class="cls-4" d="M66.81,51.53h-6.9a.7.7,0,0,1,0-1.4h6.2V35.23h-6.2a.71.71,0,0,1,0-1.41h6.9a.7.7,0,0,1,.7.71v16.3A.7.7,0,0,1,66.81,51.53Z"/><path class="cls-4" d="M42.27,51.53H35.38a.7.7,0,0,1-.7-.7V34.53a.7.7,0,0,1,.7-.71h6.89a.71.71,0,0,1,0,1.41H36.08v14.9h6.19a.7.7,0,1,1,0,1.4Z"/><path class="cls-4" d="M55.16,51.53H47a.7.7,0,0,1-.7-.7V40.32a4.8,4.8,0,0,1,9.54,0V50.83A.7.7,0,0,1,55.16,51.53Zm-7.44-1.4h6.74V40.32a3.41,3.41,0,0,0-6.74,0Z"/></g></g></svg>