<?xml version="1.0" encoding="utf-8"?>
<!-- Generator: Adobe Illustrator 26.1.0, SVG Export Plug-In . SVG Version: 6.00 Build 0)  -->
<svg version="1.1" id="Layer_1" xmlns="http://www.w3.org/2000/svg" xmlns:xlink="http://www.w3.org/1999/xlink" x="0px" y="0px"
	 viewBox="0 0 80 80" style="enable-background:new 0 0 80 80;" xml:space="preserve">
<style type="text/css">
	.st0{fill:none;stroke:#1E1E1E;stroke-width:1.5;stroke-miterlimit:10;}
	.st1{fill:#E9A0A7;}
	.st2{fill:#FDD5A9;}
	.st3{fill:#1E1E1E;stroke:#1E1E1E;stroke-width:0.3;stroke-miterlimit:10;}
</style>
<image style="overflow:visible;enable-background:new    ;" width="512" height="512" xlink:href="mountain (3).png"  transform="matrix(8.873365e-02 0 0 8.873365e-02 -1059.5603 145.203)">
</image>
<g>
	<path d="M-786.5,97.8c-0.5-0.9-1.1-1.8-1.6-2.7c-0.5-0.9-1.1-1.8-1.6-2.7c-0.6-1-1.6-1.1-2.3-0.1c-0.3,0.4-0.5,0.8-0.7,1.2
		c-0.3,0.4-0.6,0.5-1,0.3s-0.5-0.6-0.2-1.1c0.2-0.4,0.5-0.8,0.7-1.2c1.2-1.8,3.6-1.8,4.7,0c1.1,1.8,2.2,3.6,3.3,5.5
		c0.2,0.3,0.3,0.4,0.7,0.3c0.7-0.1,1.4-0.2,2.1-0.2c0.4,0,0.8,0.3,0.8,0.7c0,0.4-0.3,0.7-0.7,0.7c-2,0-4,0.6-5.9,1.3
		c-4.8,1.7-9.4,4-13.7,6.6c-3,1.8-6,3.7-9,5.5c-0.5,0.3-0.7,0.3-0.9-0.1c-0.2-0.3-0.1-0.8,0.2-1c1.1-0.8,2.3-1.5,3.4-2.3
		c0.1-0.1,0.2-0.2,0.4-0.3c-0.9-0.4-1.8-0.7-2.6-1.1c-3.2-1.2-6.4-1.8-9.8-1.8c-0.1,0-0.3,0-0.4,0c-0.5,0-0.7-0.3-0.7-0.7
		c0-0.4,0.3-0.7,0.8-0.7c0.7,0,1.4,0,2.2,0.1c4.1,0.3,8,1.4,11.7,3.2c0.3,0.1,0.4,0,0.6-0.1c3.2-2,6.5-3.9,9.9-5.6
		C-793.2,100-790,98.7-786.5,97.8z"/>
	<path d="M-807,93.7c1-1.7,1.9-3.3,2.9-4.9c0.8-1.4,2.4-2,3.9-1.6c0.8,0.2,1.5,0.7,2,1.5c1.7,2.9,3.3,5.8,5,8.7
		c0.3,0.4,0.1,0.9-0.2,1.1c-0.4,0.2-0.8,0.1-1-0.4c-1.6-2.8-3.2-5.7-4.9-8.5c-0.5-0.9-1.3-1.3-2.2-1.1c-0.7,0.1-1.1,0.6-1.4,1.1
		c-2,3.4-3.9,6.7-5.9,10.1c-0.1,0.3-0.3,0.5-0.4,0.8c-0.3,0.5-0.7,0.6-1.1,0.4c-0.4-0.2-0.5-0.6-0.2-1.1c0.8-1.4,1.7-2.8,2.5-4.2
		c0.1-0.2,0.2-0.4,0.3-0.6c-0.3-0.3-0.6-0.6-0.9-0.8c-0.6-0.4-1.2-0.2-1.7,0.4c-1.6,2-3.2,4-4.8,5.9c0,0,0,0-0.1,0.1
		c-0.4,0.5-0.8,0.6-1.2,0.4c-0.4-0.3-0.3-0.7,0.1-1.2c1.6-1.9,3.2-3.8,4.6-5.8c1.2-1.6,3.2-1.7,4.5-0.4
		C-807.2,93.5-807.1,93.6-807,93.7z"/>
</g>
<path d="M-759.8,816.4c-17-5.7-33.7-12.1-50.9-17.1c-27.3-7.8-55.3-11.6-83.5-14.3c-5-0.5-7.5-4.8-5.2-8.7c1.5-2.5,3.8-3.1,6.5-2.7
	c13.5,1.6,27,3.3,40.4,5c2.5,0.3,4.9,0.8,8.4,1.3c-18.4-22.9-36.2-45-54.1-67.2c-18,21.6-30.5,26.2-52.6,19.2
	c-11.3,21-26.8,36.6-52.4,36.6c-25.4,0-41-15.4-52.3-36.5c-22.4,7.4-39.7,0.4-52.6-19.3c-5.1,6.4-10,12.5-14.9,18.6
	c-0.9,1.1-1.7,2.2-2.7,3.1c-2.4,2.3-5.5,2.4-7.8,0.3c-2.3-2.1-2.7-4.7-1.2-7.4c0.3-0.5,0.7-1,1.1-1.5c12-14.9,23.8-29.8,36-44.5
	c1.3-1.6,3.9-3,5.9-3c4.5,0.1,6.5,5.4,3.6,9.3c-3.3,4.4-7,8.5-10.2,12.9c-0.8,1.1-1.1,3.3-0.5,4.5c9.3,18.8,28.5,22.7,42.6,14
	c4.1-2.5,7.1-1.1,9.3,3.3c3,5.8,5.8,12,9.8,17.1c19,24,49.7,23.6,68.1-0.9c3.5-4.6,6.1-10,8.6-15.2c2.8-5.8,5.2-6.9,10.8-3.8
	c14.6,8.2,33.4,3.3,42.1-15.6c0.4-0.8,0-2.4-0.6-3.2c-16.5-20.6-32.9-41.4-49.8-61.7c-11.3-13.6-25.8-22-43.9-22.5
	c-19.6-0.5-35.1,8.2-47.5,22.8c-8.5,10-16.5,20.4-24.7,30.6c-0.8,1-1.6,2-2.4,2.9c-2.9,3.5-6.2,4.2-9,1.8c-2.7-2.3-2.7-5.7,0.1-9.3
	c8.4-10.5,16.8-21.1,25.4-31.5c3.1-3.7,6.4-7.4,10-10.6c29.8-26.3,70.4-24.7,97.5,4.6c11.8,12.7,22.1,26.7,33,40.2
	c4.4,5.4,8.8,10.9,13.5,16.7c3.9-4.9,7.6-9.5,11.3-14.1c8-10.1,17.9-17.4,30.8-19.7c18.9-3.4,34.6,3.1,46.6,17.6
	c21.9,26.6,43.2,53.6,64.7,80.4c0,1.2,0,2.5,0,3.7c-3.9,5.4-7.4,5.4-11.6,0.3c-3.1-3.9-6.2-7.8-9.4-11.7c-3.8-4.7-7.6-9.4-11.5-14.2
	c-1.4,1.5-2.4,2.8-3.5,3.9c-7.1,7.1-15.5,11.1-25.6,9.1c-3.9-0.8-6-0.2-7.8,3.4c-1.6,3.2-5.3,3.8-8,2c-2.7-1.7-3.3-4.7-1.8-7.9
	c1.3-2.7,2.7-5.3,4-8c2-4.2,5-5.4,9.1-3c9.2,5.3,19.1,1.5,24.5-7.1c0.6-0.9,0.5-2.8-0.1-3.8c-1.9-2.8-4.1-5.3-6.2-7.9
	c-8.4-10.5-16.7-21.1-25.4-31.4c-15.4-18.4-39.4-19.7-55.7-2.8c-6.1,6.3-11.3,13.5-17.1,20.5c1.4,1.6,2.5,3,3.8,4.6
	c5.4-6.7,10.4-13,15.7-19.2c5.9-6.9,13.3-11.2,22.5-11.9c4.1-0.3,7,1.8,7.4,5.2c0.4,3.3-2.1,6.1-6.3,6.4c-5.6,0.3-10.2,2.7-13.7,6.7
	c-6.2,7.1-12,14.6-18.1,22c1.2,1.5,2.1,2.7,3.1,4c8.9,11.1,18,22,26.7,33.3c3.4,4.4,6.4,7.9,12.3,4.5c0.1-0.1,0.2-0.1,0.4-0.1
	c3.1-0.5,5.4,0.8,6.5,3.7c1.1,3-0.1,5.3-2.7,7c-0.9,0.5-1.9,1-3,1.5c5.6,7,11,13.8,16.5,20.3c0.9,1.1,2.7,1.7,4.2,2.1
	c22.2,5.1,44.1,11.5,65.2,20.3c2.1,0.9,3.8,2.9,5.7,4.4c0,2.5,0,5,0,7.5C-754.8,816.4-757.3,816.4-759.8,816.4z"/>
<path d="M-752.3,584.4c-1.8,7.8-4.3,15.3-9.3,21.8c-15.2,20-43.6,24.1-63.6,8.9c-2.2-1.7-3.6-1.5-5.8-0.1
	c-17.2,10.5-35.3,12.2-54.1,4.9c-2.2-0.8-3.7-0.9-5.8,0.3c-14.8,8.2-33.1,3.6-42.1-10.5c-9.2-14.3-5.6-32.9,8.2-42.9
	c1.8-1.3,2.5-2.6,2.6-4.9c0.5-13.1,5.1-24.8,13.4-35c2.9-3.5,6.2-4.2,9-1.9c2.9,2.3,2.9,5.5,0,9.2c-7.8,9.6-11.4,20.6-10.9,33
	c0.2,3.6-1.4,5.7-4.6,7.3c-8.2,4.2-12.4,12.5-11,21c1.6,9.2,8.1,15.7,17.5,17c5.6,0.8,10.7-0.8,15-4.4c2.9-2.4,5.6-2.5,8.9-0.9
	c18.5,8.9,36,7,52.3-5.4c4.3-3.3,6.4-3.2,10.4,0.6c10.9,10.7,26,13.2,39.3,6.7c13.2-6.5,20.4-20.1,18.6-35.3
	c-1.6-13.9-12.3-25.2-26.9-28.5c-6.3-1.4-7.8-5.3-4.2-10.7c4.8-7.3,5.2-14.8,0.7-22.2c-4.3-7-10.9-10.3-19-9.4
	c-8.7,1-14.6,5.9-17.3,14.4c-1.9,5.9-4.7,7-10.5,4.4c-14.9-6.9-29.7-6.7-44.2,1c-2.8,1.5-5.5,2.4-8.3,0c-3.1-2.7-2.5-7.2,1.3-9.4
	c10.6-6.2,22.1-9.1,34.4-7.9c5.9,0.6,11.7,2.1,18,3.3c4.6-8.7,12.1-14.9,22.6-16.9c7.2-1.4,14.1-0.4,20.7,3.1
	c14.3,7.5,19.7,22.3,14.7,40.4c0.9,0.4,1.8,1,2.8,1.4c14.7,6.9,23.7,18.2,26.7,34.2c0.1,0.7,0.4,1.4,0.7,2.1
	C-752.3,576.9-752.3,580.6-752.3,584.4z"/>
<path d="M-1131.8,816.4c-5.7-4.8-5-9.2,2.1-12c35.7-14.2,72.7-23.4,110.8-28.4c34.2-4.5,68.5-5.6,103-3.9c4.3,0.2,6.7,2.4,6.6,6
	c-0.1,3.6-2.6,5.5-7,5.5c-17.9-0.1-35.9-0.7-53.8,0c-53.9,2-106.3,12-156.6,32.1c-0.5,0.2-0.9,0.5-1.3,0.7
	C-1129.3,816.4-1130.5,816.4-1131.8,816.4z"/>
<path d="M-1000.6,496.9c0,15.4-12.2,27.6-27.5,27.6c-15.3,0-27.5-12.3-27.4-27.6c0-15.2,12.1-27.3,27.3-27.4
	C-1013,469.3-1000.6,481.6-1000.6,496.9z M-1028,481c-8.7,0-16,7-16.1,15.8s7.3,16.3,16.1,16.2c8.7-0.1,15.9-7.3,15.9-16
	S-1019.3,481.1-1028,481z"/>
<path d="M-997.5,628.5c-0.3,2.9-1.8,5.2-5,5.3c-16.4,0.5-27.9,9.3-37.3,21.8c-3.9,5.2-8.1,10.1-12.2,15.2c-2.9,3.6-6.2,4.2-9,1.9
	c-2.7-2.2-2.7-5.7,0.1-9.2c5.4-6.8,10.8-13.8,16.5-20.4c10.6-12.3,23.6-20.2,40.3-20.6C-1000,622.4-997.4,624.7-997.5,628.5z"/>
<path d="M-904.9,562.9c0.7-21.9,19.4-40.2,41.2-40.3c3.9,0,6.5,2.1,6.6,5.5s-2.3,5.7-6.2,6c-17.4,1.3-28.4,12.1-29.9,29.4
	c-0.4,4.6-2.6,7-6.3,6.8C-903,570.2-905,567.5-904.9,562.9z"/>
<path d="M-806.1,515.2c-0.2,2.4-1.8,4-4.6,5c-1.5,0.5-3.1,1.8-4,3.2c-1.9,3-4.6,4.4-7.5,3.2c-3.1-1.3-4.1-3.8-3.4-7
	c1.2-6.1,7.9-11.1,14-10.7C-808.3,508.9-806,511.4-806.1,515.2z"/>
<circle class="st0" cx="16.4" cy="23.1" r="6.4"/>
<g>
	<path id="Path_42582_00000118380405004529150520000008013636782081825430_" class="st1" d="M44.5,63.1c0,5.9,2.5,10.4,7.5,11.3
		V61.6c-0.1-1.1-0.7-2.1-1.6-2.7l-5.9-3.1V63.1L44.5,63.1z"/>
	<path id="Path_42583_00000160171069584087035230000015120908632737660049_" class="st2" d="M51.9,61.6v12.8
		c0.8,0.1,1.5,0.3,2.3,0.3h1.5c6.7,0,10.7-4.4,13.5-11.6L74,50.6V14.7h-3.3c-2.7-0.1-4.8,2-4.9,4.5v17.6h-1.2
		c-2.8-8.4-9.6-18.7-17.9-18.7h-2.1v37.6l5.7,3.1C51.1,59.6,51.8,60.6,51.9,61.6"/>
</g>
<path class="st0" d="M44.4,67.3l-34.3,0.1l0,0c-3.7,0-6.1-3.8-4.5-7.2C7.3,57,9.3,53.4,11,51c1.9-2.5,0.5-0.7,0.7-1l11.1-14.3
	c1.5-2,3.6-3.6,6-4.4c3.2-1.1,8.7-1.1,13.4,3.7c0.8,0.8,2.6,2.9,2.3,3.3"/>
<g>
	<path class="st3" d="M53.6,66.3c-1.8,2.3-4.9,2.1-6.4,0c-0.7,1-1.7,1.6-3,1.7c-0.9,0.1-1.7-0.2-2.4-0.7c-1.6-1.1-2-2.8-1.2-5
		c-1.2-0.1-2.2-0.6-2.9-1.6c-0.5-0.7-0.8-1.5-0.7-2.4c0.1-2,1.4-3.3,3.6-3.7c-0.1-0.5-0.3-1-0.4-1.5c0-0.3,0-0.5,0-0.8
		c0.1-0.3-0.1-0.5-0.4-0.6c-1-0.4-2-0.4-3.1-0.3c-0.1,0-0.2,0-0.4,0c-0.4,0-0.7-0.2-0.7-0.6c0-0.3,0.2-0.7,0.6-0.7
		c0.6-0.1,1.3-0.1,2-0.1c0.1-1.2,0.5-2.4,1.2-3.5c-0.9-1.3-1.2-2.8-1.2-4.4c0-0.8,0.3-1,1.1-0.8c0.3,0.1,0.6,0.2,0.9,0.3
		c0-0.1,0.1-0.2,0.1-0.3c0.6-2,2.1-3.2,4.1-3.9c0.4-0.1,0.8,0.1,0.8,0.6c0,0.6,0,1.1,0,1.7c0.4,0,0.8-0.1,1.2-0.1
		c1.1-0.1,2.2,0,3.2,0.2c0.6,0.1,0.7,0.4,0.6,1c-0.4,1.4-0.9,2.8-2,4c0.5,0.2,1,0.5,1.4,0.7c0.7,0.4,0.8,0.7,0.3,1.3
		c-1.2,1.4-2.9,2-4.7,1.4c-0.2-0.1-0.4-0.2-0.7-0.3c0,0.3,0,0.5,0,0.8c1,0.2,1.9,0.8,2.5,1.6c1.6-2,3.8-2,5.2-1.1
		c1.3,0.8,2.4,2.8,1.3,5.1c1.4,0.1,2.5,0.7,3.2,2c0.7,1.2,0.6,2.5,0,3.8c1.3,0.1,2.3,0.6,3,1.7c0.7,1.1,0.8,2.2,0.4,3.5
		c0.9-0.6,1.6-1.1,2.1-1.9c0.1-0.2,0.2-0.5,0.2-0.8c0-3.3,0-6.6,0-10c0-0.9-0.4-1.7-1.3-2.1c-3.3-1.4-5.3-4.9-4.9-8.5
		c0.3-3.2,1.4-6.2,2.5-9.2c0.2-0.5,0.4-1,0.6-1.5c0.1-0.3,0.4-0.5,0.7-0.5c2.9,0,5.8,0,8.7,0c0.4,0,0.6,0.1,0.7,0.5
		c1.4,3.2,2.6,6.5,3.1,10c0.6,4.1-1.3,7.7-5.2,9.3c-0.1,0.1-0.3,0.1-0.3,0.3c-0.5,0.6-0.8,1.3-0.8,2.2c0,3.1,0,6.1,0,9.2
		c0,0.7,0.2,1.3,0.7,1.8c1,1,2.3,1.7,3.6,2.3c0.2,0.1,0.3,0.1,0.5,0.2c0.3,0.1,0.4,0.4,0.3,0.7c-0.1,0.3-0.3,0.5-0.6,0.5
		c-0.1,0-0.2,0-0.3,0c-4.1,0-8.1,0-12.2,0c-0.5,0-1.1,0-1.6,0C55.5,67.9,54.4,67.3,53.6,66.3z M71.5,42.3c-0.6,0.2-1.1,0.4-1.6,0.5
		c-0.9,0.2-1.8,0.5-2.8,0.3c-0.9-0.2-1.6-0.7-2.4-1.2c-0.8-0.5-1.5-1-2.3-1.5c-0.4-0.4-1-0.5-1.6-0.4c-1.1,0.3-2,0.8-2.9,1.3
		c-0.1,0.1-0.2,0.2-0.2,0.3c0,0.9-0.1,1.8,0,2.6c0.5,3.1,3,5.4,6.2,5.8c2.9,0.3,5.8-1.4,7-4.1C71.5,44.8,71.6,43.6,71.5,42.3z
		 M58,39.8c0.5-0.2,0.9-0.4,1.4-0.6c1.5-0.7,2.9-0.6,4.3,0.4c0.5,0.4,1.1,0.7,1.6,1.1c0.5,0.3,0.9,0.6,1.4,0.9
		c0.5,0.3,1.1,0.4,1.7,0.3c0.9-0.2,1.7-0.5,2.6-0.7c0.3-0.1,0.3-0.2,0.3-0.5c-0.6-2.8-1.5-5.4-2.6-8c-0.1-0.3-0.3-0.2-0.5-0.2
		c-2.4,0-4.8,0-7.1,0c-0.2,0-0.4,0-0.6,0C59.5,34.7,58.6,37.2,58,39.8z M40.3,45.5c0.2-0.1,0.2-0.2,0.2-0.2c1.2-1.3,2.7-2.1,4.4-2.7
		c0.5-0.2,0.8-0.1,1,0.3c0.1,0.4,0,0.7-0.5,0.9c-0.8,0.4-1.5,0.7-2.3,1.1c-0.7,0.4-1.4,0.9-2,1.7c0.7,0.6,1.4,1.2,2.2,1.8l0.1-0.1
		c0-0.4,0-0.7,0-1.1c0-0.3,0-0.6,0.4-0.8c0.3-0.2,0.5,0,0.8,0.1c0.5,0.3,1.1,0.6,1.7,0.7c0.9,0.2,1.8,0,2.5-0.7
		c-0.6-0.3-1.2-0.6-1.7-0.9c-0.5-0.3-0.6-0.8-0.1-1.1c0.8-0.6,1.3-1.5,1.7-2.4c0.1-0.3,0.2-0.7,0.4-1c-1.4-0.2-2.7-0.2-3.9,0.1
		c-0.7,0.1-1-0.1-1-0.8c0-0.4,0-0.8,0-1.3c-0.1,0-0.1,0-0.2,0c-1.3,0.7-2.1,1.7-2.3,3.2c-0.1,0.8-0.4,0.9-1.1,0.7
		c-0.2-0.1-0.5-0.2-0.7-0.2l-0.1,0.1C39.8,43.7,40.1,44.6,40.3,45.5z M63.6,51.4c0.1,0.5,0.2,0.9,0.3,1.4c0,0.5,0,1,0,1.4
		c0,2.8,0,5.6,0,8.5c0,0.2,0,0.5-0.1,0.7c-0.2,1-0.9,1.8-1.6,2.4c-0.4,0.3-0.8,0.6-1.2,0.9c2.4,0,4.7,0,7,0c-0.6-0.5-1.2-1-1.8-1.5
		c-0.7-0.7-1.1-1.6-1.1-2.6c0-3,0-6,0-9c0-0.7,0-1.4,0.3-2.1c0,0,0,0,0-0.1C64.8,51.4,64.2,51.4,63.6,51.4z M46.6,52.7
		c0-1.4-1.1-2.5-2.5-2.6c-1.4,0-2.5,1.1-2.5,2.6c0,1.4,1.2,2.5,2.6,2.5C45.5,55.2,46.6,54.1,46.6,52.7z M49.8,58.4
		c0-1.4-1.1-2.6-2.5-2.6s-2.6,1.1-2.6,2.5s1.1,2.6,2.4,2.6C48.6,61,49.8,59.9,49.8,58.4z M56.2,58.4c0-1.4-1.2-2.5-2.6-2.5
		c-1.4,0-2.5,1.2-2.4,2.6c0,1.4,1.2,2.5,2.6,2.5C55.1,60.9,56.2,59.7,56.2,58.4z M46.6,64.1c0-1.4-1.1-2.5-2.5-2.5s-2.6,1.1-2.6,2.5
		s1.1,2.6,2.5,2.6C45.5,66.7,46.6,65.5,46.6,64.1z M53,64.2c0-1.4-1.1-2.6-2.5-2.6s-2.6,1.1-2.6,2.5s1.1,2.6,2.4,2.6
		C51.8,66.7,52.9,65.6,53,64.2z M59.3,64.1c0-1.4-1.1-2.6-2.5-2.6s-2.5,1.1-2.6,2.5c0,1.4,1.1,2.5,2.5,2.5
		C58.2,66.7,59.3,65.6,59.3,64.1z M53,52.7c0-1.4-1.2-2.5-2.6-2.5c-1.4,0-2.5,1.2-2.5,2.6c0,1.4,1.2,2.5,2.5,2.5
		C51.9,55.2,53,54.1,53,52.7z M43.4,58.4c0-1.4-1.1-2.5-2.5-2.5s-2.5,1.1-2.5,2.5s1.1,2.6,2.5,2.6C42.3,61,43.4,59.8,43.4,58.4z
		 M42.3,49.2c-0.6-0.5-1.2-1-1.9-1.6c-0.5,0.8-0.8,1.7-0.8,2.6c0.4,0.1,0.8,0.3,1.1,0.4C41.3,50.1,41.8,49.7,42.3,49.2z"/>
</g>
</svg>
