<svg id="Layer_1" data-name="Layer 1" xmlns="http://www.w3.org/2000/svg" viewBox="0 0 80 80"><defs><style>.cls-1{fill:#e9a0a7;}.cls-2{fill:#fdd5a9;}.cls-3,.cls-4,.cls-5{fill:none;}.cls-3,.cls-4{stroke:#000;stroke-miterlimit:10;stroke-width:1.5px;}.cls-4{stroke-linecap:round;}</style></defs><path class="cls-1" d="M47.79,60.58c0,5.2,2,9.13,6.11,10V59.28A3,3,0,0,0,52.56,57L47.79,54.2Z"/><path class="cls-2" d="M53.9,59.28V70.61a9.06,9.06,0,0,0,1.85.19H57c5.45,0,8.78-3.86,11.08-10.26l4-11V17.94H69.28a4,4,0,0,0-4,4V37.51h-1C62,30.16,56.44,21.1,49.58,21.1H47.79V54.2L52.56,57A3,3,0,0,1,53.9,59.28Z"/><path class="cls-3" d="M28.23,71V56.77a6.42,6.42,0,0,1,6.41-6.41h0A6.42,6.42,0,0,1,41,56.77V71"/><path class="cls-3" d="M16.07,71.26v-26a.68.68,0,0,1,.68-.68H52a.69.69,0,0,1,.69.68v26"/><line class="cls-4" x1="9.15" y1="71.13" x2="59.11" y2="71.13"/><circle class="cls-3" cx="34.29" cy="28.06" r="2.77"/><circle class="cls-3" cx="34.29" cy="37.41" r="2.77"/><polyline class="cls-3" points="46.62 44.69 40.06 21.89 34.29 21.89 28.52 21.89 21.97 44.69"/><path class="cls-3" d="M28.59,21.84a5.71,5.71,0,0,1,11.41,0"/><path class="cls-3" d="M34.46,16.35V9.22a.17.17,0,0,1,.23-.17l6.55,2a.21.21,0,0,1,0,.41l-6.58,1.7"/><rect class="cls-5" width="80" height="80"/></svg>