<svg xmlns="http://www.w3.org/2000/svg" viewBox="0 0 80 80"><defs><style>.cls-1{fill:none;}.cls-2{fill:#fdd5a9;}.cls-3{fill:#e9a0a7;}.cls-4{fill:#1e1e1e;}</style></defs><g id="Layer_2" data-name="Layer 2"><g id="Layer_1-2" data-name="Layer 1"><rect class="cls-1" width="80" height="80"/><path id="Path_9896" data-name="Path 9896" class="cls-2" d="M69.64,8.26H61.72V29.6c0,8.11-3.63,14-10.87,14H43.4V51a2.26,2.26,0,0,0,2.26,2.26h24A2.26,2.26,0,0,0,71.91,51h0V10.53a2.26,2.26,0,0,0-2.26-2.26h0Z"/><path id="Path_9897" data-name="Path 9897" class="cls-3" d="M45.66,8.26a2.27,2.27,0,0,0-2.26,2.26h0V43.58h7.45c7.24,0,10.87-5.87,10.87-14V8.26Z"/><path class="cls-4" d="M31.86,67.39H27.22A1.39,1.39,0,0,1,25.83,66V49.87a.7.7,0,0,1,1.4,0V66h4.63a.7.7,0,1,1,0,1.4Z"/><path class="cls-4" d="M55.15,67.39H51A.7.7,0,0,1,51,66h4.17a.7.7,0,1,1,0,1.4Z"/><path class="cls-4" d="M69.27,67.39H62.63a.7.7,0,1,1,0-1.4h6.64l-3.92-4.61a5.29,5.29,0,0,1-1-1.57A5.59,5.59,0,0,1,64,57.65V47.09H48.35a.7.7,0,0,1,0-1.4H64a1.39,1.39,0,0,1,1.39,1.39V57.65a4.25,4.25,0,0,0,1.06,2.82l3.92,4.63a1.39,1.39,0,0,1-1.06,2.29Z"/><path class="cls-4" d="M43.5,67.39H39.34a.7.7,0,0,1,0-1.4H43.5a.7.7,0,0,1,0,1.4Z"/><path class="cls-4" d="M26.53,50.57a.7.7,0,0,1-.7-.7v-6.1h-.95a1.4,1.4,0,0,1-1.4-1.39V39.29a1.4,1.4,0,0,1,1.4-1.4H47.71a1.39,1.39,0,0,1,1.28.84.67.67,0,0,1,.06.28V46.4a.7.7,0,0,1-1.4,0V39.29H24.88v3.09h.95a1.4,1.4,0,0,1,1.4,1.4v6.1A.7.7,0,0,1,26.53,50.57Z"/><path class="cls-4" d="M42.85,51h-11a1.31,1.31,0,0,1-1.31-1.3V43.81a1.31,1.31,0,0,1,1.31-1.3h11a1.31,1.31,0,0,1,1.31,1.3V49.7A1.31,1.31,0,0,1,42.85,51ZM31.93,49.6H42.76V43.91H31.93Z"/><path class="cls-4" d="M60,47.1H57.07a1.3,1.3,0,0,1-1.3-1.3V39.19a1.3,1.3,0,0,1,1.3-1.3H60a1.31,1.31,0,0,1,1.3,1.3V45.8A1.3,1.3,0,0,1,60,47.1Zm-2.83-1.4H59.9V39.29H57.17Z"/><path class="cls-4" d="M65,60.25H26.53a.7.7,0,0,1,0-1.4H65a.7.7,0,0,1,0,1.4Z"/><path class="cls-4" d="M65,59.45a.7.7,0,0,1-.36-1.31c2.2-1.3,3.46-3.19,3.46-5.18s-1.26-3.87-3.46-5.18a.71.71,0,0,1-.25-1,.7.7,0,0,1,1-.24C68,48.14,69.53,50.47,69.53,53S68,57.79,65.38,59.35A.74.74,0,0,1,65,59.45Z"/><path class="cls-4" d="M35.6,72a4.52,4.52,0,1,1,4.52-4.52A4.53,4.53,0,0,1,35.6,72Zm0-7.64a3.12,3.12,0,1,0,3.12,3.12A3.12,3.12,0,0,0,35.6,64.31Z"/><path class="cls-4" d="M47.24,72a4.52,4.52,0,1,1,4.52-4.52A4.53,4.53,0,0,1,47.24,72Zm0-7.64a3.12,3.12,0,1,0,3.12,3.12A3.12,3.12,0,0,0,47.24,64.31Z"/><path class="cls-4" d="M58.89,72a4.52,4.52,0,1,1,4.52-4.52A4.53,4.53,0,0,1,58.89,72Zm0-7.64A3.12,3.12,0,1,0,62,67.43,3.12,3.12,0,0,0,58.89,64.31Z"/><path class="cls-4" d="M20,67.67H12.51a.7.7,0,1,1,0-1.4H19.3v-27H9.42V67A.7.7,0,0,1,8,67V38.59a.7.7,0,0,1,.7-.7H20a.7.7,0,0,1,.7.7V67A.7.7,0,0,1,20,67.67Z"/><path class="cls-4" d="M26.53,63H20a.7.7,0,0,1,0-1.4h6.53a.7.7,0,0,1,0,1.4Z"/><path class="cls-4" d="M8.72,72a.71.71,0,0,1,0-1.41,3.12,3.12,0,1,0,0-6.23.7.7,0,1,1,0-1.4,4.52,4.52,0,0,1,0,9Z"/><path class="cls-4" d="M35.05,72H8V31.08c0-8.29,6.35-15,14.14-15s14.14,6.75,14.14,15v7.47a.7.7,0,1,1-1.4,0V31.08c0-7.52-5.71-13.64-12.74-13.64S9.42,23.56,9.42,31.08V70.54H35.05a.71.71,0,0,1,0,1.41Z"/><path class="cls-4" d="M58.62,38.72h-.11a.7.7,0,0,1-.58-.8c.48-2.84.72-5.8-.71-8.21a9.25,9.25,0,0,0-3.45-3.16,12.77,12.77,0,0,1-3.89-3.39c-1.44-2-2.82-4.76-2.1-10.31a.7.7,0,1,1,1.39.18c-.66,5.05.5,7.46,1.84,9.31a11.52,11.52,0,0,0,3.52,3A10.69,10.69,0,0,1,58.43,29c1.66,2.8,1.4,6.06.88,9.16A.69.69,0,0,1,58.62,38.72Z"/><path class="cls-4" d="M58.53,39.29h-.12a.7.7,0,0,1-.57-.81c.57-3.32.15-5.4-1.3-6.37a9,9,0,0,0-4.83-1.28,19.27,19.27,0,0,1-3.78-.55c-1.78-.49-4.36-1.72-6.16-6.67a.7.7,0,0,1,1.32-.47c1.55,4.29,3.6,5.34,5.21,5.79a18.08,18.08,0,0,0,3.52.5,10.37,10.37,0,0,1,5.51,1.51c2.89,2,2.14,6.34,1.89,7.78A.7.7,0,0,1,58.53,39.29Z"/></g></g></svg>