<svg xmlns="http://www.w3.org/2000/svg" viewBox="0 0 80 80"><defs><style>.cls-1{fill:none;}.cls-2{fill:#fdd5a9;}.cls-3{fill:#e9a0a7;}.cls-4{fill:#1e1e1e;}</style></defs><g id="Layer_2" data-name="Layer 2"><g id="Layer_1-2" data-name="Layer 1"><rect class="cls-1" width="80" height="80"/><path id="Path_42583" data-name="Path 42583" class="cls-2" d="M56.54,43.21v9.64a7,7,0,0,0,1.58.16h1.06c4.64,0,7.48-3.29,9.44-8.73L72,34.89V8H69.65a3.44,3.44,0,0,0-3.44,3.45V24.67h-.82c-1.94-6.26-6.68-14-12.53-14H51.34V38.88l4.06,2.35a2.49,2.49,0,0,1,1.14,2"/><path id="Path_42582" data-name="Path 42582" class="cls-3" d="M51.34,44.31c0,4.43,1.74,7.78,5.2,8.54V43.21a2.49,2.49,0,0,0-1.14-2l-4.06-2.35Z"/><path class="cls-4" d="M40.31,41.17a3,3,0,1,1,3-3A3,3,0,0,1,40.31,41.17Zm0-4.58a1.59,1.59,0,1,0,1.58,1.59A1.59,1.59,0,0,0,40.31,36.59Z"/><path class="cls-4" d="M51.7,45.06H28.31a.7.7,0,1,1,0-1.4H51.7a.7.7,0,1,1,0,1.4Z"/><path class="cls-4" d="M55.48,37.7a.7.7,0,0,1-.7-.7V32.55H25.24V37a.7.7,0,1,1-1.4,0V31.85a.7.7,0,0,1,.7-.7H55.48a.7.7,0,0,1,.7.7V37A.71.71,0,0,1,55.48,37.7Z"/><path class="cls-4" d="M45.45,71.62H35.21a.7.7,0,0,1-.7-.7V58.18a7.68,7.68,0,0,1,.64-4.33c.87-1.54,2.52-2.27,4.11-3l.75-.33a.68.68,0,0,1,.59,0l.75.34c1.6.71,3.25,1.45,4.11,3a7.78,7.78,0,0,1,.65,4.37l0,12.7a.7.7,0,0,1-.2.49A.67.67,0,0,1,45.45,71.62Zm-9.54-.7h0Zm0-.7h8.84l0-12a6.73,6.73,0,0,0-.47-3.65c-.63-1.12-2-1.73-3.46-2.38l-.48-.22-.47.21c-1.45.65-2.82,1.26-3.46,2.39a6.54,6.54,0,0,0-.46,3.61Z"/><path class="cls-4" d="M55.48,32.55H24.54a.7.7,0,1,1,0-1.4H55.48a.7.7,0,0,1,0,1.4Z"/><path class="cls-4" d="M28.31,71.62H8.88a.7.7,0,0,1-.7-.7V37.24a.7.7,0,0,1,1.4,0v33h18v-33a.7.7,0,1,1,1.4,0V70.92A.7.7,0,0,1,28.31,71.62Z"/><path class="cls-4" d="M28.31,48.3H9.08a.7.7,0,0,1,0-1.4H28.31a.7.7,0,0,1,0,1.4Z"/><path class="cls-4" d="M24.53,41.34H20.68a.7.7,0,0,1-.7-.7V37.7H17.39v2.94a.7.7,0,0,1-.7.7H12.64a.7.7,0,0,1-.7-.7V37.7H8.88a.7.7,0,1,1,0-1.4h3.76a.7.7,0,0,1,.7.7v2.94H16V37a.7.7,0,0,1,.7-.7h4a.7.7,0,0,1,.7.7v2.94h2.45V37a.7.7,0,0,1,.7-.7h3.78a.7.7,0,1,1,0,1.4H25.23v2.94A.7.7,0,0,1,24.53,41.34Z"/><path class="cls-4" d="M71.14,71.62H51.7a.7.7,0,0,1-.7-.7V37.24a.7.7,0,0,1,1.4,0v33h18v-33a.7.7,0,0,1,1.4,0V70.92A.7.7,0,0,1,71.14,71.62Z"/><path class="cls-4" d="M71.14,48.3H51.91a.7.7,0,0,1,0-1.4H71.14a.7.7,0,0,1,0,1.4Z"/><path class="cls-4" d="M67.36,41.34H63.51a.7.7,0,0,1-.7-.7V37.7H60.22v2.94a.7.7,0,0,1-.7.7H55.47a.7.7,0,0,1-.7-.7V37.7H51.7a.7.7,0,0,1,0-1.4h3.77a.7.7,0,0,1,.7.7v2.94h2.65V37a.7.7,0,0,1,.7-.7h4a.7.7,0,0,1,.7.7v2.94h2.45V37a.7.7,0,0,1,.7-.7h3.78a.7.7,0,1,1,0,1.4H68.06v2.94A.7.7,0,0,1,67.36,41.34Z"/><path class="cls-4" d="M51.7,71.62H28.31a.7.7,0,1,1,0-1.4H51.7a.7.7,0,1,1,0,1.4Z"/><path class="cls-4" d="M40.4,27a.59.59,0,0,1-.29-.07.69.69,0,0,1-.34-.93c.06-.14,1.66-3.48,4.2-3.48a6,6,0,0,1,2,.43,4.87,4.87,0,0,0,1.8.36,3.07,3.07,0,0,0,1.17-.58,7.5,7.5,0,0,1-1.11-.07c-1-.14-2.1-1.15-3.23-2.21a8.41,8.41,0,0,0-2-1.61,7.24,7.24,0,0,0-2.18-.07.7.7,0,1,1-.14-1.39,8.25,8.25,0,0,1,2.78.14,8.55,8.55,0,0,1,2.51,1.91A7.19,7.19,0,0,0,48,21.27a5.36,5.36,0,0,0,2.34-.17l.32-.08a.84.84,0,0,1,.77.23.77.77,0,0,1,.11.8,6.39,6.39,0,0,1-3.63,2.65,5.64,5.64,0,0,1-2.39-.43A5.31,5.31,0,0,0,44,23.92c-1.63,0-2.92,2.65-2.93,2.68A.72.72,0,0,1,40.4,27Z"/><path class="cls-4" d="M40.31,32.55a.7.7,0,0,1-.7-.7V18.08a.7.7,0,0,1,1.4,0V31.85A.7.7,0,0,1,40.31,32.55Z"/><path class="cls-4" d="M13.07,21.76l-.12,0a.7.7,0,0,1-.57-.81c.23-1.29-1.92-2.19-1.94-2.19a.7.7,0,0,1-.39-.91.69.69,0,0,1,.91-.39c.13,0,3.23,1.31,2.8,3.74A.71.71,0,0,1,13.07,21.76Z"/><path class="cls-4" d="M13.07,21.76l-.12,0a.7.7,0,0,1-.57-.81c.43-2.43,3.78-2.54,3.92-2.54a.7.7,0,1,1,0,1.4s-2.35.1-2.58,1.39A.71.71,0,0,1,13.07,21.76Z"/><path class="cls-4" d="M23.86,12.74a.7.7,0,0,1-.67-.49c-.4-1.31-2.81-1.12-2.83-1.12a.7.7,0,1,1-.13-1.39c.14,0,3.56-.32,4.3,2.1a.69.69,0,0,1-.46.87Z"/><path class="cls-4" d="M23.86,12.74a.7.7,0,0,1-.67-.49c-.74-2.42,2.26-4.08,2.39-4.15a.7.7,0,1,1,.67,1.23s-2.12,1.21-1.72,2.51a.69.69,0,0,1-.46.87Z"/></g></g></svg>