<svg xmlns="http://www.w3.org/2000/svg" viewBox="0 0 80 80"><defs><style>.cls-1{fill:none;}.cls-2{fill:#fdd5a9;}.cls-3{fill:#e9a0a7;}.cls-4{fill:#1e1e1e;}</style></defs><g id="Layer_2" data-name="Layer 2"><g id="Layer_1-2" data-name="Layer 1"><rect class="cls-1" width="80" height="80"/><path class="cls-2" d="M33.17,36.47H8.11V36.4c6.35-2.06,11.15-6.65,11.15-14,0-3.36-1.07-7.46-5.5-11.35A14.19,14.19,0,0,0,8.07,22.42V39.05a14.19,14.19,0,1,0,28.37,0V35.74A7.17,7.17,0,0,1,33.17,36.47Z"/><path class="cls-3" d="M22.25,8.24a14.14,14.14,0,0,0-8.49,2.82c4.43,3.89,5.5,8,5.5,11.35,0,7.34-4.8,11.93-11.15,14v.07H33.17a7.17,7.17,0,0,0,3.27-.73V22.42A14.18,14.18,0,0,0,22.25,8.24Z"/><path class="cls-4" d="M60.82,62.48a16.06,16.06,0,0,1-5.41-.83,14.48,14.48,0,0,0-5-.77,14.46,14.46,0,0,0-5,.77,16.06,16.06,0,0,1-5.41.83,16.16,16.16,0,0,1-5.41-.83,14.37,14.37,0,0,0-5-.77,14.42,14.42,0,0,0-5,.77,16.11,16.11,0,0,1-5.41.83,16.16,16.16,0,0,1-5.41-.83,14.35,14.35,0,0,0-5-.77.7.7,0,1,1,0-1.4,15.9,15.9,0,0,1,5.41.83,14.6,14.6,0,0,0,5,.77,14.62,14.62,0,0,0,5-.77,15.85,15.85,0,0,1,5.41-.83,15.85,15.85,0,0,1,5.41.83,14.71,14.71,0,0,0,5,.77,14.62,14.62,0,0,0,5-.77,15.9,15.9,0,0,1,5.41-.83,15.92,15.92,0,0,1,5.42.83,14.62,14.62,0,0,0,5,.77,14.66,14.66,0,0,0,5-.77,15.9,15.9,0,0,1,5.41-.83.7.7,0,1,1,0,1.4,14.46,14.46,0,0,0-5,.77A16.11,16.11,0,0,1,60.82,62.48Z"/><path class="cls-4" d="M60.66,72a15.92,15.92,0,0,1-5.42-.83,14.62,14.62,0,0,0-5-.77,14.66,14.66,0,0,0-5,.77,15.85,15.85,0,0,1-5.41.83,15.85,15.85,0,0,1-5.41-.83,14.66,14.66,0,0,0-5-.77,14.66,14.66,0,0,0-5,.77A15.85,15.85,0,0,1,19,72a15.83,15.83,0,0,1-5.4-.83.7.7,0,0,1-.47-.87.71.71,0,0,1,.87-.47h0a14.69,14.69,0,0,0,5,.76,14.42,14.42,0,0,0,5-.77A15.85,15.85,0,0,1,29.42,69a15.85,15.85,0,0,1,5.41.83,14.42,14.42,0,0,0,5,.77,14.42,14.42,0,0,0,5-.77A15.85,15.85,0,0,1,50.24,69a15.92,15.92,0,0,1,5.42.83,14.37,14.37,0,0,0,5,.77,14.64,14.64,0,0,0,5-.76l.42,1.33A15.9,15.9,0,0,1,60.66,72Z"/><path class="cls-4" d="M58.12,62a.7.7,0,0,1-.7-.7V33.13a.7.7,0,1,1,1.4,0V61.32A.7.7,0,0,1,58.12,62Z"/><path class="cls-4" d="M64.6,61a.7.7,0,0,1-.7-.7V32.9a.7.7,0,1,1,1.4,0V60.34A.7.7,0,0,1,64.6,61Z"/><path class="cls-4" d="M21.92,62a.7.7,0,0,1-.7-.7V33.13a.7.7,0,0,1,1.4,0V61.32A.7.7,0,0,1,21.92,62Z"/><path class="cls-4" d="M15.4,61.27a.7.7,0,0,1-.7-.7V33.13a.7.7,0,1,1,1.4,0V60.57A.7.7,0,0,1,15.4,61.27Z"/><path class="cls-4" d="M31.52,60.75a.71.71,0,0,1-.7-.7V55.44a1.62,1.62,0,1,0-3.24,0v4.22a.7.7,0,0,1-1.4,0V55.44a3,3,0,1,1,6,0v4.61A.71.71,0,0,1,31.52,60.75Z"/><path class="cls-4" d="M26.88,48.37a.7.7,0,0,1-.7-.7V43a3,3,0,1,1,6,0v4.07a.71.71,0,0,1-1.41,0V43a1.62,1.62,0,1,0-3.24,0v4.68A.7.7,0,0,1,26.88,48.37Z"/><path class="cls-4" d="M48.48,60.67a.71.71,0,0,1-.71-.7V55.36a3,3,0,1,1,6,0v4.21a.7.7,0,1,1-1.4,0V55.36a1.62,1.62,0,1,0-3.24,0V60A.71.71,0,0,1,48.48,60.67Z"/><path class="cls-4" d="M53.12,48.37a.7.7,0,0,1-.7-.7V43a1.62,1.62,0,1,0-3.24,0v4.07a.71.71,0,0,1-1.41,0V43a3,3,0,1,1,6,0v4.68A.7.7,0,0,1,53.12,48.37Z"/><path class="cls-4" d="M37.68,61.36a.7.7,0,0,1-.7-.7V55.44a3,3,0,1,1,6,0v4.61a.7.7,0,0,1-1.4,0V55.44a1.62,1.62,0,1,0-3.24,0v5.22A.71.71,0,0,1,37.68,61.36Z"/><path class="cls-4" d="M42.32,62.31a.71.71,0,0,1-.7-.7V55.37a1.62,1.62,0,0,0-3.24,0v6a.7.7,0,0,1-1.4,0v-6a3,3,0,0,1,6,0v6.24A.7.7,0,0,1,42.32,62.31Z"/><path class="cls-4" d="M43.54,47.86a.7.7,0,0,1-.7-.7V40.4a2.84,2.84,0,0,0-5.68,0V47a.7.7,0,0,1-1.4,0V40.4a4.24,4.24,0,0,1,8.48,0v6.76A.7.7,0,0,1,43.54,47.86Z"/><path class="cls-4" d="M47.4,36a.7.7,0,0,1-.69-.59c-.4-2.37-2.33-3.81-6.9-5.11a.71.71,0,0,1-.48-.87.7.7,0,0,1,.86-.48c4.32,1.24,7.32,2.77,7.9,6.23a.7.7,0,0,1-.57.81Z"/><path class="cls-4" d="M32.6,36l-.16,0a.69.69,0,0,1-.52-.84c.82-3.62,4.27-5.11,7.88-6.19a.7.7,0,0,1,.4,1.34c-4.43,1.32-6.37,2.77-6.92,5.16A.69.69,0,0,1,32.6,36Z"/><path class="cls-4" d="M57.82,48.37H22.22a.7.7,0,0,1,0-1.4h35.6a.7.7,0,0,1,0,1.4Z"/><path class="cls-4" d="M32.6,36H22.22a.7.7,0,0,1,0-1.4H32.6a.7.7,0,0,1,0,1.4Z"/><path class="cls-4" d="M57.84,36H47.4a.7.7,0,0,1,0-1.4H57.84a.7.7,0,1,1,0,1.4Z"/><path class="cls-4" d="M53.52,18.46a5.21,5.21,0,1,1,5.2-5.2A5.21,5.21,0,0,1,53.52,18.46Zm0-9a3.81,3.81,0,1,0,3.8,3.81A3.82,3.82,0,0,0,53.52,9.45Z"/><path class="cls-4" d="M64.6,33.6h0a.7.7,0,0,1-.66-.73,4.64,4.64,0,0,0-.27-2.35,3.48,3.48,0,0,0-1.84-1.29l-.73-.34a.7.7,0,0,1,.62-1.26c.23.12.46.22.69.32a4.61,4.61,0,0,1,2.5,1.92,5.72,5.72,0,0,1,.43,3.07A.7.7,0,0,1,64.6,33.6Z"/><path class="cls-4" d="M58.14,33.6a.7.7,0,0,1-.7-.66,5.82,5.82,0,0,1,.44-3.07A4.61,4.61,0,0,1,60.38,28c.22-.1.45-.2.68-.32a.7.7,0,0,1,.62,1.26l-.73.34a3.52,3.52,0,0,0-1.84,1.29,4.75,4.75,0,0,0-.27,2.35.69.69,0,0,1-.66.73Z"/><path class="cls-4" d="M15.43,33.6a.7.7,0,0,1-.7-.66,5.72,5.72,0,0,1,.43-3.07A4.63,4.63,0,0,1,17.67,28c.23-.1.46-.2.69-.32A.7.7,0,1,1,19,28.89l-.74.34a3.52,3.52,0,0,0-1.84,1.29,4.53,4.53,0,0,0-.27,2.35.7.7,0,0,1-.67.73Z"/><path class="cls-4" d="M21.91,33.6h0a.7.7,0,0,1-.67-.73,4.64,4.64,0,0,0-.27-2.35,3.52,3.52,0,0,0-1.84-1.29l-.74-.34A.7.7,0,1,1,19,27.63c.23.12.46.22.69.32a4.63,4.63,0,0,1,2.51,1.92,5.72,5.72,0,0,1,.43,3.07A.7.7,0,0,1,21.91,33.6Z"/></g></g></svg>